<?xml version="1.0" standalone="no"?>
 <!DOCTYPE svg PUBLIC "-//W3C//DTD SVG 1.1//EN" 
 "http://www.w3.org/Graphics/SVG/1.1/DTD/svg11.dtd"> 
<svg xmlns="http://www.w3.org/2000/svg" version="1.1" 
    width="6.00456cm" height="5.40512cm" viewBox="0 0 23640 21280 ">
<title>SVG Picture created as christmas-tree-F_Cu.svg date 2014/12/16 22:51:50 </title>
  <desc>Picture generated by PCBNEW </desc>
<g style="fill:#000000; fill-opacity:1;stroke:#000000; stroke-opacity:1;
stroke-linecap:round; stroke-linejoin:round; "
 transform="translate(0 0) scale(1 1)">
</g>
<g style="fill:#000000; fill-opacity:0.0; 
stroke:#000000; stroke-width:39.3701; stroke-opacity:1; 
stroke-linecap:round; stroke-linejoin:round;">
<circle cx="0.984252" cy="21279" r="0.655906" /> 
<path d="M0 21279
L1 21279
" />
<path d="M0 21280
L0 21278
" />
<path d="M17717 15176
L12008 20885
" />
<path d="M14567 15176
L17717 15176
" />
<path d="M21260 8483
L14567 15176
" />
<path d="M17717 8483
L21260 8483
" />
<path d="M23623 2578
L17717 8483
" />
<path d="M15749 2578
L23623 2578
" />
<path d="M15749 19
L15749 2578
" />
<path d="M8268 19
L15749 19
" />
<path d="M8268 2578
L8268 19
" />
<path d="M394 2578
L8268 2578
" />
<path d="M6300 8483
L394 2578
" />
<path d="M2756 8483
L6300 8483
" />
<path d="M9449 15176
L2756 8483
" />
<path d="M6300 15176
L9449 15176
" />
<path d="M12008 20885
L6300 15176
" />
</g>
<g style="fill:#000000; fill-opacity:1.0; 
stroke:#000000; stroke-width:39.3701; stroke-opacity:1; 
stroke-linecap:round; stroke-linejoin:round;">
<circle cx="9449.8" cy="9786.89" r="305.315" /> 
<circle cx="9449.8" cy="6786.89" r="305.315" /> 
<circle cx="9130.91" cy="5137.28" r="305.315" /> 
<circle cx="12130.9" cy="5137.28" r="305.315" /> 
<circle cx="12205.7" cy="11117.6" r="305.315" /> 
<circle cx="12205.7" cy="14117.6" r="305.315" /> 
<circle cx="13190" cy="11117.6" r="305.315" /> 
<circle cx="13190" cy="14117.6" r="305.315" /> 
<circle cx="14174.2" cy="11117.6" r="305.315" /> 
<circle cx="14174.2" cy="14117.6" r="305.315" /> 
<circle cx="12099.4" cy="2381.38" r="310.315" /> 
<circle cx="13099.4" cy="2381.38" r="310.315" /> 
<polyline style="fill-rule:evenodd;"
points="10809,6356
10809,7217
11389,7217
11389,6356
10809,6356
" /> 
</g>
<g style="fill:#000000; fill-opacity:1.0; 
stroke:#000000; stroke-width:620; stroke-opacity:1; 
stroke-linecap:round; stroke-linejoin:round;">
<path d="M12099 6926
L12099 6646
" />
<path d="M13099 6926
L13099 6646
" />
<path d="M14099 6926
L14099 6646
" />
<path d="M14099 9926
L14099 9646
" />
<path d="M13099 9926
L13099 9646
" />
<path d="M12099 9926
L12099 9646
" />
<path d="M11099 9926
L11099 9646
" />
</g>
<g style="fill:#000000; fill-opacity:1.0; 
stroke:#000000; stroke-width:39.3701; stroke-opacity:1; 
stroke-linecap:round; stroke-linejoin:round;">
<circle cx="8268.7" cy="9574.29" r="255.315" /> 
<circle cx="8268.7" cy="8574.29" r="255.315" /> 
<circle cx="11064" cy="18720" r="236.22" /> 
<circle cx="11693.9" cy="18720" r="236.22" /> 
<circle cx="12323.8" cy="18720" r="216.535" /> 
<circle cx="12953.7" cy="18720" r="216.535" /> 
<circle cx="15945.9" cy="5137.28" r="275.591" /> 
<circle cx="13190" cy="5137.28" r="275.591" /> 
<polyline style="fill-rule:evenodd;"
points="9366,3949
9926,3949
9926,3388
9366,3388
9366,3949
" /> 
<circle cx="9646.65" cy="2668.78" r="280.315" /> 
</g>
<g style="fill:#FFFFFF; fill-opacity:1.0; 
stroke:#FFFFFF; stroke-width:39.3701; stroke-opacity:1; 
stroke-linecap:round; stroke-linejoin:round;">
<circle cx="9449.8" cy="9786.89" r="140.315" /> 
<circle cx="9449.8" cy="6786.89" r="140.315" /> 
<circle cx="9130.91" cy="5137.28" r="140.315" /> 
<circle cx="12130.9" cy="5137.28" r="140.315" /> 
<circle cx="12205.7" cy="11117.6" r="140.315" /> 
<circle cx="12205.7" cy="14117.6" r="140.315" /> 
<circle cx="13190" cy="11117.6" r="140.315" /> 
<circle cx="13190" cy="14117.6" r="140.315" /> 
<circle cx="14174.2" cy="11117.6" r="140.315" /> 
<circle cx="14174.2" cy="14117.6" r="140.315" /> 
<circle cx="12099.4" cy="2381.38" r="140.315" /> 
<circle cx="13099.4" cy="2381.38" r="140.315" /> 
<circle cx="11099.4" cy="6786.89" r="140.315" /> 
<circle cx="12099.4" cy="6786.89" r="140.315" /> 
<circle cx="13099.4" cy="6786.89" r="140.315" /> 
<circle cx="14099.4" cy="6786.89" r="140.315" /> 
<circle cx="14099.4" cy="9786.89" r="140.315" /> 
<circle cx="13099.4" cy="9786.89" r="140.315" /> 
<circle cx="12099.4" cy="9786.89" r="140.315" /> 
<circle cx="11099.4" cy="9786.89" r="140.315" /> 
<circle cx="8268.7" cy="9574.29" r="140.315" /> 
<circle cx="8268.7" cy="8574.29" r="140.315" /> 
<circle cx="11064" cy="18720" r="98.4252" /> 
<circle cx="11693.9" cy="18720" r="98.4252" /> 
<circle cx="12323.8" cy="18720" r="98.4252" /> 
<circle cx="12953.7" cy="18720" r="98.4252" /> 
<circle cx="15945.9" cy="5137.28" r="98.4252" /> 
<circle cx="13190" cy="5137.28" r="98.4252" /> 
<circle cx="9646.65" cy="3668.78" r="180.315" /> 
<circle cx="9646.65" cy="2668.78" r="180.315" /> 
</g> 
</svg>
