M48
;DRILL file {Pcbnew (2013-may-18)-stable} date Tue 16 Dec 2014 04:15:01 PM EET
;FORMAT={-:-/ absolute / metric / decimal}
FMAT,2
METRIC,TZ
T1C0.600
T2C0.813
T3C1.016
%
G90
G05
M71
T1
X28.1Y-6.5
X29.7Y-6.5
X31.3Y-6.5
X32.9Y-6.5
X33.5Y-41.
X40.5Y-41.
T2
X21.Y-29.73
X21.Y-32.27
X23.19Y-41.
X24.Y-29.19
X24.Y-36.81
X28.19Y-29.19
X28.19Y-36.81
X30.73Y-29.19
X30.73Y-36.81
X30.73Y-48.
X30.81Y-41.
X31.Y-18.19
X31.Y-25.81
X33.27Y-29.19
X33.27Y-36.81
X33.27Y-48.
X33.5Y-18.19
X33.5Y-25.81
X35.81Y-29.19
X35.81Y-36.81
X36.Y-18.19
X36.Y-25.81
T3
X24.5Y-44.73
X24.5Y-47.27
T0
M30
