G04 (created by PCBNEW (2013-may-18)-stable) date Tue 16 Dec 2014 10:51:35 PM EET*
%MOIN*%
G04 Gerber Fmt 3.4, Leading zero omitted, Abs format*
%FSLAX34Y34*%
G01*
G70*
G90*
G04 APERTURE LIST*
%ADD10C,0.00590551*%
%ADD11C,0.011811*%
%ADD12C,0.065*%
%ADD13C,0.066*%
%ADD14R,0.062X0.09*%
%ADD15O,0.062X0.09*%
%ADD16C,0.055*%
%ADD17C,0.0511811*%
%ADD18C,0.0472441*%
%ADD19C,0.0590551*%
%ADD20R,0.06X0.06*%
%ADD21C,0.06*%
%ADD22C,0.0393701*%
%ADD23C,0.01*%
G04 APERTURE END LIST*
G54D10*
G54D11*
X6130Y-17421D02*
X6102Y-17393D01*
X6046Y-17365D01*
X5905Y-17365D01*
X5849Y-17393D01*
X5821Y-17421D01*
X5793Y-17477D01*
X5793Y-17533D01*
X5821Y-17618D01*
X6158Y-17955D01*
X5793Y-17955D01*
X5427Y-17365D02*
X5371Y-17365D01*
X5314Y-17393D01*
X5286Y-17421D01*
X5258Y-17477D01*
X5230Y-17589D01*
X5230Y-17730D01*
X5258Y-17843D01*
X5286Y-17899D01*
X5314Y-17927D01*
X5371Y-17955D01*
X5427Y-17955D01*
X5483Y-17927D01*
X5511Y-17899D01*
X5539Y-17843D01*
X5568Y-17730D01*
X5568Y-17589D01*
X5539Y-17477D01*
X5511Y-17421D01*
X5483Y-17393D01*
X5427Y-17365D01*
X4668Y-17955D02*
X5005Y-17955D01*
X4836Y-17955D02*
X4836Y-17365D01*
X4893Y-17449D01*
X4949Y-17505D01*
X5005Y-17533D01*
X4161Y-17561D02*
X4161Y-17955D01*
X4302Y-17336D02*
X4443Y-17758D01*
X4077Y-17758D01*
X20823Y-17955D02*
X20823Y-17365D01*
X20627Y-17786D01*
X20430Y-17365D01*
X20430Y-17955D01*
X19895Y-17955D02*
X19895Y-17646D01*
X19924Y-17589D01*
X19980Y-17561D01*
X20092Y-17561D01*
X20149Y-17589D01*
X19895Y-17927D02*
X19952Y-17955D01*
X20092Y-17955D01*
X20149Y-17927D01*
X20177Y-17871D01*
X20177Y-17814D01*
X20149Y-17758D01*
X20092Y-17730D01*
X19952Y-17730D01*
X19895Y-17702D01*
X19614Y-17955D02*
X19614Y-17365D01*
X19558Y-17730D02*
X19389Y-17955D01*
X19389Y-17561D02*
X19614Y-17786D01*
X18911Y-17927D02*
X18967Y-17955D01*
X19080Y-17955D01*
X19136Y-17927D01*
X19164Y-17871D01*
X19164Y-17646D01*
X19136Y-17589D01*
X19080Y-17561D01*
X18967Y-17561D01*
X18911Y-17589D01*
X18883Y-17646D01*
X18883Y-17702D01*
X19164Y-17758D01*
X18293Y-17955D02*
X18489Y-17674D01*
X18630Y-17955D02*
X18630Y-17365D01*
X18405Y-17365D01*
X18349Y-17393D01*
X18321Y-17421D01*
X18293Y-17477D01*
X18293Y-17561D01*
X18321Y-17618D01*
X18349Y-17646D01*
X18405Y-17674D01*
X18630Y-17674D01*
X18039Y-17955D02*
X18039Y-17561D01*
X18039Y-17365D02*
X18068Y-17393D01*
X18039Y-17421D01*
X18011Y-17393D01*
X18039Y-17365D01*
X18039Y-17421D01*
X17505Y-17561D02*
X17505Y-18039D01*
X17533Y-18096D01*
X17561Y-18124D01*
X17618Y-18152D01*
X17702Y-18152D01*
X17758Y-18124D01*
X17505Y-17927D02*
X17561Y-17955D01*
X17674Y-17955D01*
X17730Y-17927D01*
X17758Y-17899D01*
X17786Y-17843D01*
X17786Y-17674D01*
X17758Y-17618D01*
X17730Y-17589D01*
X17674Y-17561D01*
X17561Y-17561D01*
X17505Y-17589D01*
X16971Y-17955D02*
X16971Y-17646D01*
X16999Y-17589D01*
X17055Y-17561D01*
X17168Y-17561D01*
X17224Y-17589D01*
X16971Y-17927D02*
X17027Y-17955D01*
X17168Y-17955D01*
X17224Y-17927D01*
X17252Y-17871D01*
X17252Y-17814D01*
X17224Y-17758D01*
X17168Y-17730D01*
X17027Y-17730D01*
X16971Y-17702D01*
G54D12*
X9448Y-11492D03*
X9448Y-14492D03*
X9129Y-16141D03*
X12129Y-16141D03*
X12204Y-10161D03*
X12204Y-7161D03*
X13188Y-10161D03*
X13188Y-7161D03*
X14173Y-10161D03*
X14173Y-7161D03*
G54D13*
X12098Y-18897D03*
X13098Y-18897D03*
G54D14*
X11098Y-14492D03*
G54D15*
X12098Y-14492D03*
X13098Y-14492D03*
X14098Y-14492D03*
X14098Y-11492D03*
X13098Y-11492D03*
X12098Y-11492D03*
X11098Y-11492D03*
G54D16*
X8267Y-11704D03*
X8267Y-12704D03*
G54D17*
X11062Y-2559D03*
X11692Y-2559D03*
G54D18*
X12322Y-2559D03*
X12952Y-2559D03*
G54D19*
X15944Y-16141D03*
X13188Y-16141D03*
G54D20*
X9645Y-17610D03*
G54D21*
X9645Y-18610D03*
G54D22*
X12322Y-2559D02*
X12322Y-2244D01*
X15157Y-13433D02*
X14098Y-14492D01*
X15157Y-7175D02*
X15157Y-13433D01*
X13582Y-5601D02*
X15157Y-7175D01*
X13582Y-2362D02*
X13582Y-5601D01*
X13188Y-1968D02*
X13582Y-2362D01*
X12598Y-1968D02*
X13188Y-1968D01*
X12322Y-2244D02*
X12598Y-1968D01*
X9645Y-18610D02*
X10145Y-18610D01*
X13098Y-19775D02*
X13098Y-18897D01*
X12795Y-20078D02*
X13098Y-19775D01*
X11614Y-20078D02*
X12795Y-20078D01*
X10145Y-18610D02*
X11614Y-20078D01*
X8267Y-12704D02*
X13098Y-12704D01*
X14098Y-13704D02*
X14098Y-14492D01*
X13098Y-12704D02*
X14098Y-13704D01*
X13098Y-18897D02*
X13188Y-18897D01*
X13188Y-18897D02*
X15944Y-16141D01*
X15944Y-16141D02*
X15748Y-16141D01*
X15748Y-16141D02*
X14098Y-14492D01*
X11062Y-2559D02*
X11062Y-2716D01*
X11295Y-7161D02*
X12204Y-7161D01*
X10236Y-6102D02*
X11295Y-7161D01*
X10236Y-3543D02*
X10236Y-6102D01*
X11062Y-2716D02*
X10236Y-3543D01*
X14098Y-11492D02*
X14098Y-10236D01*
X14098Y-10236D02*
X14173Y-10161D01*
X9448Y-14492D02*
X11098Y-14492D01*
X13098Y-11492D02*
X13098Y-10251D01*
X13098Y-10251D02*
X13188Y-10161D01*
X12098Y-11492D02*
X12098Y-10267D01*
X12098Y-10267D02*
X12204Y-10161D01*
X12129Y-16141D02*
X12129Y-18866D01*
X12129Y-18866D02*
X12098Y-18897D01*
X12098Y-14492D02*
X12098Y-16110D01*
X12098Y-16110D02*
X12129Y-16141D01*
X14173Y-7161D02*
X14173Y-6889D01*
X12952Y-2992D02*
X12952Y-2559D01*
X12401Y-3543D02*
X12952Y-2992D01*
X12401Y-5118D02*
X12401Y-3543D01*
X14173Y-6889D02*
X12401Y-5118D01*
X11692Y-2559D02*
X11692Y-3070D01*
X13188Y-6692D02*
X13188Y-7161D01*
X12795Y-6299D02*
X13188Y-6692D01*
X11811Y-6299D02*
X12795Y-6299D01*
X11220Y-5708D02*
X11811Y-6299D01*
X11220Y-3543D02*
X11220Y-5708D01*
X11692Y-3070D02*
X11220Y-3543D01*
X13188Y-16141D02*
X13188Y-14582D01*
X13188Y-14582D02*
X13098Y-14492D01*
X9645Y-17610D02*
X9645Y-16657D01*
X9645Y-16657D02*
X9129Y-16141D01*
X9129Y-16141D02*
X9129Y-15625D01*
X7586Y-11704D02*
X8267Y-11704D01*
X7283Y-12007D02*
X7586Y-11704D01*
X7283Y-13779D02*
X7283Y-12007D01*
X9129Y-15625D02*
X7283Y-13779D01*
X9448Y-11492D02*
X11098Y-11492D01*
X8267Y-11704D02*
X9236Y-11704D01*
X9236Y-11704D02*
X9448Y-11492D01*
G54D10*
G36*
X12745Y-5952D02*
X11954Y-5952D01*
X11567Y-5564D01*
X11567Y-3686D01*
X11938Y-3316D01*
X12013Y-3203D01*
X12039Y-3070D01*
X12039Y-2822D01*
X12103Y-2886D01*
X12245Y-2945D01*
X12399Y-2945D01*
X12541Y-2886D01*
X12605Y-2822D01*
X12605Y-2848D01*
X12156Y-3298D01*
X12081Y-3410D01*
X12054Y-3543D01*
X12054Y-5118D01*
X12081Y-5250D01*
X12156Y-5363D01*
X12745Y-5952D01*
X12745Y-5952D01*
G37*
G54D23*
X12745Y-5952D02*
X11954Y-5952D01*
X11567Y-5564D01*
X11567Y-3686D01*
X11938Y-3316D01*
X12013Y-3203D01*
X12039Y-3070D01*
X12039Y-2822D01*
X12103Y-2886D01*
X12245Y-2945D01*
X12399Y-2945D01*
X12541Y-2886D01*
X12605Y-2822D01*
X12605Y-2848D01*
X12156Y-3298D01*
X12081Y-3410D01*
X12054Y-3543D01*
X12054Y-5118D01*
X12081Y-5250D01*
X12156Y-5363D01*
X12745Y-5952D01*
G54D10*
G36*
X13235Y-5461D02*
X12748Y-4974D01*
X12748Y-3686D01*
X13198Y-3237D01*
X13198Y-3237D01*
X13198Y-3237D01*
X13235Y-3180D01*
X13235Y-5461D01*
X13235Y-5461D01*
G37*
G54D23*
X13235Y-5461D02*
X12748Y-4974D01*
X12748Y-3686D01*
X13198Y-3237D01*
X13198Y-3237D01*
X13198Y-3237D01*
X13235Y-3180D01*
X13235Y-5461D01*
G54D10*
G36*
X17358Y-5953D02*
X14566Y-5953D01*
X14510Y-5965D01*
X14466Y-5994D01*
X13929Y-5457D01*
X13929Y-2525D01*
X17358Y-5953D01*
X17358Y-5953D01*
G37*
G54D23*
X17358Y-5953D02*
X14566Y-5953D01*
X14510Y-5965D01*
X14466Y-5994D01*
X13929Y-5457D01*
X13929Y-2525D01*
X17358Y-5953D01*
G54D10*
G36*
X23263Y-18552D02*
X21152Y-18552D01*
X21152Y-18317D01*
X21152Y-16997D01*
X16642Y-16997D01*
X16642Y-18317D01*
X21152Y-18317D01*
X21152Y-18552D01*
X15748Y-18552D01*
X15691Y-18563D01*
X15643Y-18595D01*
X15610Y-18643D01*
X15599Y-18700D01*
X15599Y-21111D01*
X8416Y-21111D01*
X8416Y-18700D01*
X8404Y-18643D01*
X8372Y-18595D01*
X8324Y-18563D01*
X8267Y-18552D01*
X6430Y-18552D01*
X6430Y-18317D01*
X6430Y-16997D01*
X3805Y-16997D01*
X3805Y-18317D01*
X6430Y-18317D01*
X6430Y-18552D01*
X752Y-18552D01*
X6404Y-12900D01*
X6404Y-12900D01*
X6436Y-12852D01*
X6447Y-12795D01*
X6447Y-12795D01*
X6436Y-12738D01*
X6436Y-12738D01*
X6404Y-12690D01*
X6356Y-12658D01*
X6299Y-12646D01*
X3114Y-12646D01*
X9553Y-6207D01*
X9553Y-6207D01*
X9585Y-6159D01*
X9597Y-6102D01*
X9597Y-6102D01*
X9585Y-6045D01*
X9585Y-6045D01*
X9553Y-5997D01*
X9505Y-5965D01*
X9448Y-5953D01*
X6657Y-5953D01*
X12007Y-603D01*
X13025Y-1621D01*
X12598Y-1621D01*
X12465Y-1648D01*
X12353Y-1723D01*
X12077Y-1998D01*
X12002Y-2111D01*
X11975Y-2244D01*
X11975Y-2268D01*
X11923Y-2215D01*
X11774Y-2153D01*
X11612Y-2153D01*
X11463Y-2214D01*
X11377Y-2299D01*
X11293Y-2215D01*
X11144Y-2153D01*
X10982Y-2153D01*
X10833Y-2214D01*
X10719Y-2328D01*
X10657Y-2477D01*
X10657Y-2631D01*
X9990Y-3298D01*
X9915Y-3410D01*
X9889Y-3543D01*
X9889Y-6102D01*
X9915Y-6235D01*
X9990Y-6347D01*
X11050Y-7406D01*
X11162Y-7481D01*
X11162Y-7481D01*
X11295Y-7508D01*
X11879Y-7508D01*
X11935Y-7563D01*
X12109Y-7636D01*
X12298Y-7636D01*
X12473Y-7564D01*
X12607Y-7430D01*
X12679Y-7256D01*
X12679Y-7067D01*
X12607Y-6892D01*
X12474Y-6758D01*
X12299Y-6686D01*
X12110Y-6686D01*
X11936Y-6758D01*
X11879Y-6814D01*
X11438Y-6814D01*
X10583Y-5958D01*
X10583Y-3686D01*
X11308Y-2961D01*
X11346Y-2905D01*
X11346Y-2927D01*
X10975Y-3298D01*
X10900Y-3410D01*
X10873Y-3543D01*
X10873Y-5708D01*
X10900Y-5841D01*
X10975Y-5953D01*
X11565Y-6544D01*
X11678Y-6619D01*
X11678Y-6619D01*
X11811Y-6646D01*
X12651Y-6646D01*
X12842Y-6836D01*
X12786Y-6892D01*
X12714Y-7066D01*
X12713Y-7255D01*
X12786Y-7430D01*
X12919Y-7563D01*
X13094Y-7636D01*
X13283Y-7636D01*
X13457Y-7564D01*
X13591Y-7430D01*
X13663Y-7256D01*
X13664Y-7067D01*
X13591Y-6892D01*
X13535Y-6836D01*
X13535Y-6742D01*
X13745Y-6952D01*
X13698Y-7066D01*
X13698Y-7255D01*
X13770Y-7430D01*
X13903Y-7563D01*
X14078Y-7636D01*
X14267Y-7636D01*
X14441Y-7564D01*
X14575Y-7430D01*
X14648Y-7256D01*
X14648Y-7157D01*
X14810Y-7319D01*
X14810Y-13289D01*
X14648Y-13451D01*
X14648Y-10067D01*
X14576Y-9892D01*
X14442Y-9758D01*
X14268Y-9686D01*
X14079Y-9686D01*
X13904Y-9758D01*
X13770Y-9892D01*
X13698Y-10066D01*
X13698Y-10255D01*
X13751Y-10384D01*
X13751Y-11047D01*
X13673Y-11164D01*
X13664Y-11211D01*
X13664Y-10067D01*
X13591Y-9892D01*
X13458Y-9758D01*
X13283Y-9686D01*
X13094Y-9686D01*
X12920Y-9758D01*
X12786Y-9892D01*
X12714Y-10066D01*
X12713Y-10255D01*
X12751Y-10346D01*
X12751Y-11047D01*
X12679Y-11154D01*
X12679Y-10067D01*
X12607Y-9892D01*
X12474Y-9758D01*
X12299Y-9686D01*
X12110Y-9686D01*
X11936Y-9758D01*
X11802Y-9892D01*
X11729Y-10066D01*
X11729Y-10255D01*
X11751Y-10308D01*
X11751Y-11047D01*
X11673Y-11164D01*
X11638Y-11340D01*
X11638Y-11643D01*
X11673Y-11819D01*
X11773Y-11969D01*
X11922Y-12068D01*
X12098Y-12103D01*
X12274Y-12068D01*
X12423Y-11969D01*
X12523Y-11819D01*
X12558Y-11643D01*
X12558Y-11340D01*
X12523Y-11164D01*
X12445Y-11047D01*
X12445Y-10575D01*
X12473Y-10564D01*
X12607Y-10430D01*
X12679Y-10256D01*
X12679Y-10067D01*
X12679Y-11154D01*
X12673Y-11164D01*
X12638Y-11340D01*
X12638Y-11643D01*
X12673Y-11819D01*
X12773Y-11969D01*
X12922Y-12068D01*
X13098Y-12103D01*
X13274Y-12068D01*
X13423Y-11969D01*
X13523Y-11819D01*
X13558Y-11643D01*
X13558Y-11340D01*
X13523Y-11164D01*
X13445Y-11047D01*
X13445Y-10569D01*
X13457Y-10564D01*
X13591Y-10430D01*
X13663Y-10256D01*
X13664Y-10067D01*
X13664Y-11211D01*
X13638Y-11340D01*
X13638Y-11643D01*
X13673Y-11819D01*
X13773Y-11969D01*
X13922Y-12068D01*
X14098Y-12103D01*
X14274Y-12068D01*
X14423Y-11969D01*
X14523Y-11819D01*
X14558Y-11643D01*
X14558Y-11340D01*
X14523Y-11164D01*
X14445Y-11047D01*
X14445Y-10561D01*
X14575Y-10430D01*
X14648Y-10256D01*
X14648Y-10067D01*
X14648Y-13451D01*
X14436Y-13663D01*
X14418Y-13571D01*
X14418Y-13571D01*
X14343Y-13459D01*
X13343Y-12459D01*
X13231Y-12384D01*
X13098Y-12357D01*
X11558Y-12357D01*
X11558Y-11643D01*
X11558Y-11340D01*
X11523Y-11164D01*
X11423Y-11015D01*
X11274Y-10915D01*
X11098Y-10880D01*
X10922Y-10915D01*
X10773Y-11015D01*
X10686Y-11145D01*
X9773Y-11145D01*
X9718Y-11089D01*
X9543Y-11017D01*
X9354Y-11017D01*
X9180Y-11089D01*
X9046Y-11222D01*
X8990Y-11357D01*
X8521Y-11357D01*
X8508Y-11344D01*
X8352Y-11279D01*
X8183Y-11279D01*
X8027Y-11344D01*
X8013Y-11357D01*
X7586Y-11357D01*
X7453Y-11384D01*
X7341Y-11459D01*
X7038Y-11762D01*
X6963Y-11875D01*
X6936Y-12007D01*
X6936Y-13779D01*
X6963Y-13912D01*
X7038Y-14024D01*
X8783Y-15769D01*
X8783Y-15816D01*
X8727Y-15872D01*
X8655Y-16046D01*
X8654Y-16235D01*
X8727Y-16410D01*
X8860Y-16544D01*
X9035Y-16616D01*
X9114Y-16616D01*
X9298Y-16801D01*
X9298Y-17167D01*
X9260Y-17182D01*
X9218Y-17225D01*
X9195Y-17280D01*
X9195Y-17339D01*
X9195Y-17939D01*
X9218Y-17995D01*
X9260Y-18037D01*
X9315Y-18060D01*
X9375Y-18060D01*
X9975Y-18060D01*
X10030Y-18037D01*
X10072Y-17995D01*
X10095Y-17940D01*
X10095Y-17880D01*
X10095Y-17280D01*
X10072Y-17225D01*
X10030Y-17183D01*
X9992Y-17167D01*
X9992Y-16657D01*
X9992Y-16657D01*
X9966Y-16524D01*
X9966Y-16524D01*
X9941Y-16487D01*
X9890Y-16412D01*
X9890Y-16412D01*
X9604Y-16126D01*
X9605Y-16047D01*
X9532Y-15873D01*
X9476Y-15816D01*
X9476Y-15625D01*
X9450Y-15493D01*
X9450Y-15493D01*
X9425Y-15455D01*
X9375Y-15380D01*
X9375Y-15380D01*
X7630Y-13635D01*
X7630Y-12151D01*
X7730Y-12051D01*
X8013Y-12051D01*
X8026Y-12064D01*
X8182Y-12129D01*
X8351Y-12129D01*
X8508Y-12065D01*
X8521Y-12051D01*
X9236Y-12051D01*
X9368Y-12025D01*
X9455Y-11967D01*
X9542Y-11967D01*
X9717Y-11895D01*
X9773Y-11838D01*
X10686Y-11838D01*
X10773Y-11969D01*
X10922Y-12068D01*
X11098Y-12103D01*
X11274Y-12068D01*
X11423Y-11969D01*
X11523Y-11819D01*
X11558Y-11643D01*
X11558Y-12357D01*
X8521Y-12357D01*
X8508Y-12344D01*
X8352Y-12279D01*
X8183Y-12279D01*
X8027Y-12344D01*
X7907Y-12463D01*
X7842Y-12619D01*
X7842Y-12788D01*
X7907Y-12945D01*
X8026Y-13064D01*
X8182Y-13129D01*
X8351Y-13129D01*
X8508Y-13065D01*
X8521Y-13051D01*
X12954Y-13051D01*
X13751Y-13848D01*
X13751Y-14047D01*
X13673Y-14164D01*
X13638Y-14340D01*
X13638Y-14643D01*
X13673Y-14819D01*
X13773Y-14969D01*
X13922Y-15068D01*
X14098Y-15103D01*
X14199Y-15083D01*
X15355Y-16240D01*
X13634Y-17961D01*
X13634Y-16053D01*
X13566Y-15889D01*
X13535Y-15858D01*
X13535Y-14757D01*
X13558Y-14643D01*
X13558Y-14340D01*
X13523Y-14164D01*
X13423Y-14015D01*
X13274Y-13915D01*
X13098Y-13880D01*
X12922Y-13915D01*
X12773Y-14015D01*
X12673Y-14164D01*
X12638Y-14340D01*
X12638Y-14643D01*
X12673Y-14819D01*
X12773Y-14969D01*
X12842Y-15015D01*
X12842Y-15858D01*
X12811Y-15889D01*
X12743Y-16052D01*
X12743Y-16229D01*
X12811Y-16393D01*
X12936Y-16518D01*
X13100Y-16586D01*
X13277Y-16587D01*
X13440Y-16519D01*
X13566Y-16394D01*
X13634Y-16230D01*
X13634Y-16053D01*
X13634Y-17961D01*
X13178Y-18417D01*
X13003Y-18417D01*
X12826Y-18490D01*
X12691Y-18625D01*
X12618Y-18801D01*
X12618Y-18992D01*
X12691Y-19169D01*
X12751Y-19229D01*
X12751Y-19631D01*
X12651Y-19731D01*
X12605Y-19731D01*
X12605Y-16047D01*
X12532Y-15873D01*
X12445Y-15785D01*
X12445Y-14936D01*
X12523Y-14819D01*
X12558Y-14643D01*
X12558Y-14340D01*
X12523Y-14164D01*
X12423Y-14015D01*
X12274Y-13915D01*
X12098Y-13880D01*
X11922Y-13915D01*
X11773Y-14015D01*
X11673Y-14164D01*
X11638Y-14340D01*
X11638Y-14643D01*
X11673Y-14819D01*
X11751Y-14936D01*
X11751Y-15848D01*
X11727Y-15872D01*
X11655Y-16046D01*
X11654Y-16235D01*
X11727Y-16410D01*
X11783Y-16466D01*
X11783Y-18534D01*
X11691Y-18625D01*
X11618Y-18801D01*
X11618Y-18992D01*
X11691Y-19169D01*
X11826Y-19304D01*
X12002Y-19377D01*
X12193Y-19377D01*
X12369Y-19304D01*
X12505Y-19169D01*
X12578Y-18993D01*
X12578Y-18802D01*
X12505Y-18626D01*
X12476Y-18597D01*
X12476Y-16466D01*
X12532Y-16411D01*
X12604Y-16236D01*
X12605Y-16047D01*
X12605Y-19731D01*
X11757Y-19731D01*
X11558Y-19532D01*
X11558Y-14912D01*
X11558Y-14012D01*
X11535Y-13957D01*
X11493Y-13915D01*
X11438Y-13892D01*
X11378Y-13892D01*
X10758Y-13892D01*
X10703Y-13914D01*
X10661Y-13957D01*
X10638Y-14012D01*
X10638Y-14071D01*
X10638Y-14145D01*
X9773Y-14145D01*
X9718Y-14089D01*
X9543Y-14017D01*
X9354Y-14017D01*
X9180Y-14089D01*
X9046Y-14222D01*
X8973Y-14397D01*
X8973Y-14586D01*
X9045Y-14760D01*
X9179Y-14894D01*
X9353Y-14967D01*
X9542Y-14967D01*
X9717Y-14895D01*
X9773Y-14838D01*
X10638Y-14838D01*
X10638Y-14971D01*
X10661Y-15026D01*
X10703Y-15069D01*
X10758Y-15092D01*
X10818Y-15092D01*
X11438Y-15092D01*
X11493Y-15069D01*
X11535Y-15027D01*
X11558Y-14972D01*
X11558Y-14912D01*
X11558Y-19532D01*
X10390Y-18364D01*
X10278Y-18289D01*
X10145Y-18263D01*
X9935Y-18263D01*
X9900Y-18228D01*
X9735Y-18160D01*
X9556Y-18160D01*
X9391Y-18228D01*
X9264Y-18354D01*
X9195Y-18520D01*
X9195Y-18699D01*
X9263Y-18864D01*
X9390Y-18991D01*
X9555Y-19060D01*
X9734Y-19060D01*
X9900Y-18991D01*
X9935Y-18957D01*
X10001Y-18957D01*
X11368Y-20324D01*
X11481Y-20399D01*
X11481Y-20399D01*
X11614Y-20425D01*
X12795Y-20425D01*
X12928Y-20399D01*
X13040Y-20324D01*
X13343Y-20020D01*
X13418Y-19908D01*
X13418Y-19908D01*
X13445Y-19775D01*
X13445Y-19229D01*
X13505Y-19169D01*
X13574Y-19002D01*
X15990Y-16587D01*
X16033Y-16587D01*
X16196Y-16519D01*
X16322Y-16394D01*
X16390Y-16230D01*
X16390Y-16053D01*
X16322Y-15889D01*
X16197Y-15764D01*
X16033Y-15696D01*
X15856Y-15696D01*
X15811Y-15714D01*
X14588Y-14492D01*
X15402Y-13678D01*
X15477Y-13565D01*
X15477Y-13565D01*
X15504Y-13433D01*
X15504Y-7249D01*
X20901Y-12646D01*
X17716Y-12646D01*
X17659Y-12658D01*
X17611Y-12690D01*
X17579Y-12738D01*
X17568Y-12795D01*
X17579Y-12852D01*
X17611Y-12900D01*
X23263Y-18552D01*
X23263Y-18552D01*
G37*
G54D23*
X23263Y-18552D02*
X21152Y-18552D01*
X21152Y-18317D01*
X21152Y-16997D01*
X16642Y-16997D01*
X16642Y-18317D01*
X21152Y-18317D01*
X21152Y-18552D01*
X15748Y-18552D01*
X15691Y-18563D01*
X15643Y-18595D01*
X15610Y-18643D01*
X15599Y-18700D01*
X15599Y-21111D01*
X8416Y-21111D01*
X8416Y-18700D01*
X8404Y-18643D01*
X8372Y-18595D01*
X8324Y-18563D01*
X8267Y-18552D01*
X6430Y-18552D01*
X6430Y-18317D01*
X6430Y-16997D01*
X3805Y-16997D01*
X3805Y-18317D01*
X6430Y-18317D01*
X6430Y-18552D01*
X752Y-18552D01*
X6404Y-12900D01*
X6404Y-12900D01*
X6436Y-12852D01*
X6447Y-12795D01*
X6447Y-12795D01*
X6436Y-12738D01*
X6436Y-12738D01*
X6404Y-12690D01*
X6356Y-12658D01*
X6299Y-12646D01*
X3114Y-12646D01*
X9553Y-6207D01*
X9553Y-6207D01*
X9585Y-6159D01*
X9597Y-6102D01*
X9597Y-6102D01*
X9585Y-6045D01*
X9585Y-6045D01*
X9553Y-5997D01*
X9505Y-5965D01*
X9448Y-5953D01*
X6657Y-5953D01*
X12007Y-603D01*
X13025Y-1621D01*
X12598Y-1621D01*
X12465Y-1648D01*
X12353Y-1723D01*
X12077Y-1998D01*
X12002Y-2111D01*
X11975Y-2244D01*
X11975Y-2268D01*
X11923Y-2215D01*
X11774Y-2153D01*
X11612Y-2153D01*
X11463Y-2214D01*
X11377Y-2299D01*
X11293Y-2215D01*
X11144Y-2153D01*
X10982Y-2153D01*
X10833Y-2214D01*
X10719Y-2328D01*
X10657Y-2477D01*
X10657Y-2631D01*
X9990Y-3298D01*
X9915Y-3410D01*
X9889Y-3543D01*
X9889Y-6102D01*
X9915Y-6235D01*
X9990Y-6347D01*
X11050Y-7406D01*
X11162Y-7481D01*
X11162Y-7481D01*
X11295Y-7508D01*
X11879Y-7508D01*
X11935Y-7563D01*
X12109Y-7636D01*
X12298Y-7636D01*
X12473Y-7564D01*
X12607Y-7430D01*
X12679Y-7256D01*
X12679Y-7067D01*
X12607Y-6892D01*
X12474Y-6758D01*
X12299Y-6686D01*
X12110Y-6686D01*
X11936Y-6758D01*
X11879Y-6814D01*
X11438Y-6814D01*
X10583Y-5958D01*
X10583Y-3686D01*
X11308Y-2961D01*
X11346Y-2905D01*
X11346Y-2927D01*
X10975Y-3298D01*
X10900Y-3410D01*
X10873Y-3543D01*
X10873Y-5708D01*
X10900Y-5841D01*
X10975Y-5953D01*
X11565Y-6544D01*
X11678Y-6619D01*
X11678Y-6619D01*
X11811Y-6646D01*
X12651Y-6646D01*
X12842Y-6836D01*
X12786Y-6892D01*
X12714Y-7066D01*
X12713Y-7255D01*
X12786Y-7430D01*
X12919Y-7563D01*
X13094Y-7636D01*
X13283Y-7636D01*
X13457Y-7564D01*
X13591Y-7430D01*
X13663Y-7256D01*
X13664Y-7067D01*
X13591Y-6892D01*
X13535Y-6836D01*
X13535Y-6742D01*
X13745Y-6952D01*
X13698Y-7066D01*
X13698Y-7255D01*
X13770Y-7430D01*
X13903Y-7563D01*
X14078Y-7636D01*
X14267Y-7636D01*
X14441Y-7564D01*
X14575Y-7430D01*
X14648Y-7256D01*
X14648Y-7157D01*
X14810Y-7319D01*
X14810Y-13289D01*
X14648Y-13451D01*
X14648Y-10067D01*
X14576Y-9892D01*
X14442Y-9758D01*
X14268Y-9686D01*
X14079Y-9686D01*
X13904Y-9758D01*
X13770Y-9892D01*
X13698Y-10066D01*
X13698Y-10255D01*
X13751Y-10384D01*
X13751Y-11047D01*
X13673Y-11164D01*
X13664Y-11211D01*
X13664Y-10067D01*
X13591Y-9892D01*
X13458Y-9758D01*
X13283Y-9686D01*
X13094Y-9686D01*
X12920Y-9758D01*
X12786Y-9892D01*
X12714Y-10066D01*
X12713Y-10255D01*
X12751Y-10346D01*
X12751Y-11047D01*
X12679Y-11154D01*
X12679Y-10067D01*
X12607Y-9892D01*
X12474Y-9758D01*
X12299Y-9686D01*
X12110Y-9686D01*
X11936Y-9758D01*
X11802Y-9892D01*
X11729Y-10066D01*
X11729Y-10255D01*
X11751Y-10308D01*
X11751Y-11047D01*
X11673Y-11164D01*
X11638Y-11340D01*
X11638Y-11643D01*
X11673Y-11819D01*
X11773Y-11969D01*
X11922Y-12068D01*
X12098Y-12103D01*
X12274Y-12068D01*
X12423Y-11969D01*
X12523Y-11819D01*
X12558Y-11643D01*
X12558Y-11340D01*
X12523Y-11164D01*
X12445Y-11047D01*
X12445Y-10575D01*
X12473Y-10564D01*
X12607Y-10430D01*
X12679Y-10256D01*
X12679Y-10067D01*
X12679Y-11154D01*
X12673Y-11164D01*
X12638Y-11340D01*
X12638Y-11643D01*
X12673Y-11819D01*
X12773Y-11969D01*
X12922Y-12068D01*
X13098Y-12103D01*
X13274Y-12068D01*
X13423Y-11969D01*
X13523Y-11819D01*
X13558Y-11643D01*
X13558Y-11340D01*
X13523Y-11164D01*
X13445Y-11047D01*
X13445Y-10569D01*
X13457Y-10564D01*
X13591Y-10430D01*
X13663Y-10256D01*
X13664Y-10067D01*
X13664Y-11211D01*
X13638Y-11340D01*
X13638Y-11643D01*
X13673Y-11819D01*
X13773Y-11969D01*
X13922Y-12068D01*
X14098Y-12103D01*
X14274Y-12068D01*
X14423Y-11969D01*
X14523Y-11819D01*
X14558Y-11643D01*
X14558Y-11340D01*
X14523Y-11164D01*
X14445Y-11047D01*
X14445Y-10561D01*
X14575Y-10430D01*
X14648Y-10256D01*
X14648Y-10067D01*
X14648Y-13451D01*
X14436Y-13663D01*
X14418Y-13571D01*
X14418Y-13571D01*
X14343Y-13459D01*
X13343Y-12459D01*
X13231Y-12384D01*
X13098Y-12357D01*
X11558Y-12357D01*
X11558Y-11643D01*
X11558Y-11340D01*
X11523Y-11164D01*
X11423Y-11015D01*
X11274Y-10915D01*
X11098Y-10880D01*
X10922Y-10915D01*
X10773Y-11015D01*
X10686Y-11145D01*
X9773Y-11145D01*
X9718Y-11089D01*
X9543Y-11017D01*
X9354Y-11017D01*
X9180Y-11089D01*
X9046Y-11222D01*
X8990Y-11357D01*
X8521Y-11357D01*
X8508Y-11344D01*
X8352Y-11279D01*
X8183Y-11279D01*
X8027Y-11344D01*
X8013Y-11357D01*
X7586Y-11357D01*
X7453Y-11384D01*
X7341Y-11459D01*
X7038Y-11762D01*
X6963Y-11875D01*
X6936Y-12007D01*
X6936Y-13779D01*
X6963Y-13912D01*
X7038Y-14024D01*
X8783Y-15769D01*
X8783Y-15816D01*
X8727Y-15872D01*
X8655Y-16046D01*
X8654Y-16235D01*
X8727Y-16410D01*
X8860Y-16544D01*
X9035Y-16616D01*
X9114Y-16616D01*
X9298Y-16801D01*
X9298Y-17167D01*
X9260Y-17182D01*
X9218Y-17225D01*
X9195Y-17280D01*
X9195Y-17339D01*
X9195Y-17939D01*
X9218Y-17995D01*
X9260Y-18037D01*
X9315Y-18060D01*
X9375Y-18060D01*
X9975Y-18060D01*
X10030Y-18037D01*
X10072Y-17995D01*
X10095Y-17940D01*
X10095Y-17880D01*
X10095Y-17280D01*
X10072Y-17225D01*
X10030Y-17183D01*
X9992Y-17167D01*
X9992Y-16657D01*
X9992Y-16657D01*
X9966Y-16524D01*
X9966Y-16524D01*
X9941Y-16487D01*
X9890Y-16412D01*
X9890Y-16412D01*
X9604Y-16126D01*
X9605Y-16047D01*
X9532Y-15873D01*
X9476Y-15816D01*
X9476Y-15625D01*
X9450Y-15493D01*
X9450Y-15493D01*
X9425Y-15455D01*
X9375Y-15380D01*
X9375Y-15380D01*
X7630Y-13635D01*
X7630Y-12151D01*
X7730Y-12051D01*
X8013Y-12051D01*
X8026Y-12064D01*
X8182Y-12129D01*
X8351Y-12129D01*
X8508Y-12065D01*
X8521Y-12051D01*
X9236Y-12051D01*
X9368Y-12025D01*
X9455Y-11967D01*
X9542Y-11967D01*
X9717Y-11895D01*
X9773Y-11838D01*
X10686Y-11838D01*
X10773Y-11969D01*
X10922Y-12068D01*
X11098Y-12103D01*
X11274Y-12068D01*
X11423Y-11969D01*
X11523Y-11819D01*
X11558Y-11643D01*
X11558Y-12357D01*
X8521Y-12357D01*
X8508Y-12344D01*
X8352Y-12279D01*
X8183Y-12279D01*
X8027Y-12344D01*
X7907Y-12463D01*
X7842Y-12619D01*
X7842Y-12788D01*
X7907Y-12945D01*
X8026Y-13064D01*
X8182Y-13129D01*
X8351Y-13129D01*
X8508Y-13065D01*
X8521Y-13051D01*
X12954Y-13051D01*
X13751Y-13848D01*
X13751Y-14047D01*
X13673Y-14164D01*
X13638Y-14340D01*
X13638Y-14643D01*
X13673Y-14819D01*
X13773Y-14969D01*
X13922Y-15068D01*
X14098Y-15103D01*
X14199Y-15083D01*
X15355Y-16240D01*
X13634Y-17961D01*
X13634Y-16053D01*
X13566Y-15889D01*
X13535Y-15858D01*
X13535Y-14757D01*
X13558Y-14643D01*
X13558Y-14340D01*
X13523Y-14164D01*
X13423Y-14015D01*
X13274Y-13915D01*
X13098Y-13880D01*
X12922Y-13915D01*
X12773Y-14015D01*
X12673Y-14164D01*
X12638Y-14340D01*
X12638Y-14643D01*
X12673Y-14819D01*
X12773Y-14969D01*
X12842Y-15015D01*
X12842Y-15858D01*
X12811Y-15889D01*
X12743Y-16052D01*
X12743Y-16229D01*
X12811Y-16393D01*
X12936Y-16518D01*
X13100Y-16586D01*
X13277Y-16587D01*
X13440Y-16519D01*
X13566Y-16394D01*
X13634Y-16230D01*
X13634Y-16053D01*
X13634Y-17961D01*
X13178Y-18417D01*
X13003Y-18417D01*
X12826Y-18490D01*
X12691Y-18625D01*
X12618Y-18801D01*
X12618Y-18992D01*
X12691Y-19169D01*
X12751Y-19229D01*
X12751Y-19631D01*
X12651Y-19731D01*
X12605Y-19731D01*
X12605Y-16047D01*
X12532Y-15873D01*
X12445Y-15785D01*
X12445Y-14936D01*
X12523Y-14819D01*
X12558Y-14643D01*
X12558Y-14340D01*
X12523Y-14164D01*
X12423Y-14015D01*
X12274Y-13915D01*
X12098Y-13880D01*
X11922Y-13915D01*
X11773Y-14015D01*
X11673Y-14164D01*
X11638Y-14340D01*
X11638Y-14643D01*
X11673Y-14819D01*
X11751Y-14936D01*
X11751Y-15848D01*
X11727Y-15872D01*
X11655Y-16046D01*
X11654Y-16235D01*
X11727Y-16410D01*
X11783Y-16466D01*
X11783Y-18534D01*
X11691Y-18625D01*
X11618Y-18801D01*
X11618Y-18992D01*
X11691Y-19169D01*
X11826Y-19304D01*
X12002Y-19377D01*
X12193Y-19377D01*
X12369Y-19304D01*
X12505Y-19169D01*
X12578Y-18993D01*
X12578Y-18802D01*
X12505Y-18626D01*
X12476Y-18597D01*
X12476Y-16466D01*
X12532Y-16411D01*
X12604Y-16236D01*
X12605Y-16047D01*
X12605Y-19731D01*
X11757Y-19731D01*
X11558Y-19532D01*
X11558Y-14912D01*
X11558Y-14012D01*
X11535Y-13957D01*
X11493Y-13915D01*
X11438Y-13892D01*
X11378Y-13892D01*
X10758Y-13892D01*
X10703Y-13914D01*
X10661Y-13957D01*
X10638Y-14012D01*
X10638Y-14071D01*
X10638Y-14145D01*
X9773Y-14145D01*
X9718Y-14089D01*
X9543Y-14017D01*
X9354Y-14017D01*
X9180Y-14089D01*
X9046Y-14222D01*
X8973Y-14397D01*
X8973Y-14586D01*
X9045Y-14760D01*
X9179Y-14894D01*
X9353Y-14967D01*
X9542Y-14967D01*
X9717Y-14895D01*
X9773Y-14838D01*
X10638Y-14838D01*
X10638Y-14971D01*
X10661Y-15026D01*
X10703Y-15069D01*
X10758Y-15092D01*
X10818Y-15092D01*
X11438Y-15092D01*
X11493Y-15069D01*
X11535Y-15027D01*
X11558Y-14972D01*
X11558Y-14912D01*
X11558Y-19532D01*
X10390Y-18364D01*
X10278Y-18289D01*
X10145Y-18263D01*
X9935Y-18263D01*
X9900Y-18228D01*
X9735Y-18160D01*
X9556Y-18160D01*
X9391Y-18228D01*
X9264Y-18354D01*
X9195Y-18520D01*
X9195Y-18699D01*
X9263Y-18864D01*
X9390Y-18991D01*
X9555Y-19060D01*
X9734Y-19060D01*
X9900Y-18991D01*
X9935Y-18957D01*
X10001Y-18957D01*
X11368Y-20324D01*
X11481Y-20399D01*
X11481Y-20399D01*
X11614Y-20425D01*
X12795Y-20425D01*
X12928Y-20399D01*
X13040Y-20324D01*
X13343Y-20020D01*
X13418Y-19908D01*
X13418Y-19908D01*
X13445Y-19775D01*
X13445Y-19229D01*
X13505Y-19169D01*
X13574Y-19002D01*
X15990Y-16587D01*
X16033Y-16587D01*
X16196Y-16519D01*
X16322Y-16394D01*
X16390Y-16230D01*
X16390Y-16053D01*
X16322Y-15889D01*
X16197Y-15764D01*
X16033Y-15696D01*
X15856Y-15696D01*
X15811Y-15714D01*
X14588Y-14492D01*
X15402Y-13678D01*
X15477Y-13565D01*
X15477Y-13565D01*
X15504Y-13433D01*
X15504Y-7249D01*
X20901Y-12646D01*
X17716Y-12646D01*
X17659Y-12658D01*
X17611Y-12690D01*
X17579Y-12738D01*
X17568Y-12795D01*
X17579Y-12852D01*
X17611Y-12900D01*
X23263Y-18552D01*
M02*
