<?xml version="1.0" standalone="no"?>
 <!DOCTYPE svg PUBLIC "-//W3C//DTD SVG 1.1//EN" 
 "http://www.w3.org/Graphics/SVG/1.1/DTD/svg11.dtd"> 
<svg xmlns="http://www.w3.org/2000/svg" version="1.1" 
    width="5.334cm" height="2.667cm" viewBox="0 0 21000 10500 ">
<title>SVG Picture created as christmas-tree-B_Cu.svg date 2014/12/19 20:56:42 </title>
  <desc>Picture generated by PCBNEW </desc>
<g style="fill:#000000; fill-opacity:1;stroke:#000000; stroke-opacity:1;
stroke-linecap:round; stroke-linejoin:round; "
 transform="translate(0 0) scale(1 1)">
</g>
<g style="fill:#808000; fill-opacity:0.0; 
stroke:#808000; stroke-width:39.3701; stroke-opacity:1; 
stroke-linecap:round; stroke-linejoin:round;">
</g>
<g style="fill:#808000; fill-opacity:1.0; 
stroke:#808000; stroke-width:39.3701; stroke-opacity:1; 
stroke-linecap:round; stroke-linejoin:round;">
<circle cx="13610.2" cy="3157.48" r="255.315" /> 
<circle cx="13610.2" cy="5157.48" r="255.315" /> 
<circle cx="10610.2" cy="3157.48" r="255.315" /> 
<circle cx="10610.2" cy="5157.48" r="255.315" /> 
<circle cx="18409.4" cy="9039.37" r="236.22" /> 
<circle cx="18409.4" cy="8409.45" r="236.22" /> 
<circle cx="18409.4" cy="7779.53" r="216.535" /> 
<circle cx="18409.4" cy="7149.61" r="216.535" /> 
<circle cx="4500" cy="2000" r="305.315" /> 
<circle cx="4500" cy="5000" r="305.315" /> 
<circle cx="3000" cy="2000" r="305.315" /> 
<circle cx="3000" cy="5000" r="305.315" /> 
<circle cx="10000" cy="9000" r="305.315" /> 
<circle cx="13000" cy="9000" r="305.315" /> 
<circle cx="10000" cy="8000" r="305.315" /> 
<circle cx="13000" cy="8000" r="305.315" /> 
<circle cx="10000" cy="7000" r="305.315" /> 
<circle cx="13000" cy="7000" r="305.315" /> 
<polyline style="fill-rule:evenodd;"
points="8166,1514
8166,2075
7605,2075
7605,1514
8166,1514
" /> 
<circle cx="6885.83" cy="1795.28" r="280.315" /> 
<circle cx="2948.82" cy="8094.49" r="310.315" /> 
<circle cx="3948.82" cy="8094.49" r="310.315" /> 
<polyline style="fill-rule:evenodd;"
points="5455,4729
6316,4729
6316,5310
5455,5310
5455,4729
" /> 
</g>
<g style="fill:#808000; fill-opacity:1.0; 
stroke:#808000; stroke-width:620; stroke-opacity:1; 
stroke-linecap:round; stroke-linejoin:round;">
<path d="M6025 6019
L5745 6019
" />
<path d="M6025 7019
L5745 7019
" />
<path d="M6025 8019
L5745 8019
" />
<path d="M9025 8019
L8745 8019
" />
<path d="M9025 7019
L8745 7019
" />
<path d="M9025 6019
L8745 6019
" />
<path d="M9025 5019
L8745 5019
" />
</g>
<g style="fill:#808000; fill-opacity:1.0; 
stroke:#808000; stroke-width:39.3701; stroke-opacity:1; 
stroke-linecap:round; stroke-linejoin:round;">
<circle cx="7885.83" cy="3370.08" r="255.315" /> 
<circle cx="6885.83" cy="3370.08" r="255.315" /> 
</g>
<g style="fill:#00A000; fill-opacity:1.0; 
stroke:#00A000; stroke-width:393.701; stroke-opacity:1; 
stroke-linecap:round; stroke-linejoin:round;">
<path d="M6885 3370
L6870 3370
" />
<path d="M6870 3370
L6500 3000
" />
<path d="M18409 7779
L19220 7779
" />
<path d="M19220 7779
L19500 7500
" />
<path d="M5885 8019
L4023 8019
" />
<path d="M4023 8019
L3948 8094
" />
<path d="M8885 8019
L9980 8019
" />
<path d="M9980 8019
L10000 8000
" />
<path d="M5885 5019
L4519 5019
" />
<path d="M4519 5019
L4500 5000
" />
<path d="M8885 7019
L9980 7019
" />
<path d="M9980 7019
L10000 7000
" />
<path d="M10000 9000
L8000 9000
" />
<path d="M6519 7019
L5885 7019
" />
<path d="M7000 7500
L6519 7019
" />
<path d="M7000 8000
L7000 7500
" />
<path d="M8000 9000
L7000 8000
" />
<path d="M13000 7000
L18259 7000
" />
<path d="M18259 7000
L18409 7149
" />
<path d="M13000 8000
L17000 8000
" />
<path d="M17409 8409
L18409 8409
" />
<path d="M17000 8000
L17409 8409
" />
<path d="M18409 9039
L13039 9039
" />
<path d="M13039 9039
L13000 9000
" />
<path d="M3000 5000
L4000 6000
" />
<path d="M5866 6000
L5885 6019
" />
<path d="M4000 6000
L5866 6000
" />
<path d="M2948 8094
L2948 5051
" />
<path d="M2948 5051
L3000 5000
" />
<path d="M10610 5157
L10342 5157
" />
<path d="M9480 6019
L8885 6019
" />
<path d="M10342 5157
L9480 6019
" />
<path d="M13610 5157
L10610 5157
" />
<path d="M7885 3370
L7885 1795
" />
<path d="M8885 5019
L8885 4370
" />
<path d="M8885 4370
L7885 3370
" />
<path d="M4500 2000
L4500 2500
" />
<path d="M7519 5019
L8885 5019
" />
<path d="M6500 4000
L7519 5019
" />
<path d="M6000 4000
L6500 4000
" />
<path d="M4500 2500
L6000 4000
" />
<path d="M3000 2000
L4500 2000
" />
</g>
<g style="fill:#00A000; fill-opacity:1.0; 
stroke:#00A000; stroke-width:39.3701; stroke-opacity:1; 
stroke-linecap:round; stroke-linejoin:round;">
<polyline style="fill-rule:evenodd;"
points="20950,10450
19306,10450
19306,8861
19249,8724
19305,8588
19306,8231
19169,7902
19033,7765
19152,7646
19286,7324
19286,6975
19153,6653
18906,6406
18757,6344
18580,6226
18259,6162
14525,6162
14525,4976
14386,4639
14140,4392
14140,3233
14128,3024
14070,2884
13978,2860
13907,2931
13907,2789
13883,2696
13686,2627
13477,2638
13337,2696
13313,2789
13610,3086
13907,2789
13907,2931
13680,3157
13978,3454
14070,3430
14140,3233
14140,4392
14129,4381
13907,4289
13907,3525
13610,3228
13539,3298
13539,3157
13242,2860
13149,2884
13080,3081
13091,3290
13149,3430
13242,3454
13539,3157
13539,3298
13313,3525
13337,3618
13534,3687
13742,3676
13883,3618
13907,3525
13907,4289
13793,4242
13428,4241
13239,4320
11140,4320
11140,3233
11128,3024
11070,2884
10978,2860
10907,2931
10907,2789
10883,2696
10686,2627
10477,2638
10337,2696
10313,2789
10610,3086
10907,2789
10907,2931
10680,3157
10978,3454
11070,3430
11140,3233
11140,4320
10980,4320
10907,4289
10907,3525
10610,3228
10539,3298
10539,3157
10242,2860
10149,2884
10080,3081
10091,3290
10149,3430
10242,3454
10539,3157
10539,3298
10313,3525
10337,3618
10534,3687
10742,3676
10883,3618
10907,3525
10907,4289
10793,4242
10428,4241
10143,4359
10022,4383
9829,4512
9719,4347
9718,4347
9659,4049
9477,3777
8740,3040
8723,2999
8723,2463
8728,2458
8826,2223
8826,1968
8826,1368
8729,1132
8549,952
8313,854
8058,854
7458,854
7223,951
7043,1131
6994,1249
6967,1240
6749,1251
6597,1314
6570,1409
6885,1724
6891,1718
6945,1772
6945,1817
6891,1871
6885,1865
6815,1936
6815,1795
6499,1480
6404,1507
6331,1713
6341,1932
6404,2083
6499,2110
6815,1795
6815,1936
6570,2181
6597,2276
6804,2350
6994,2340
7042,2457
7048,2463
7048,2870
6961,2840
6753,2851
6613,2909
6588,3002
6810,3224
6634,3189
6518,3072
6425,3097
6402,3162
6346,3162
5439,2255
5465,2192
5465,1808
5319,1453
5047,1181
4692,1034
4308,1034
3998,1162
3501,1162
3192,1034
2808,1034
2453,1180
2181,1452
2034,1807
2034,2191
2180,2546
2452,2818
2807,2965
3191,2965
3501,2837
3737,2837
3907,3092
4962,4146
4692,4034
4308,4034
3953,4180
3749,4384
3547,4181
3192,4034
2808,4034
2453,4180
2181,4452
2034,4807
2034,5191
2111,5377
2111,7580
1978,7900
1978,8286
2125,8643
2398,8916
2754,9064
3141,9065
3497,8917
3769,8646
3859,8679
4090,8668
4254,8600
4285,8502
3948,8165
3943,8170
3919,8146
3919,8042
3943,8018
3948,8023
4285,7686
4254,7588
4037,7509
3807,7520
3786,7529
3786,6794
4000,6837
4810,6837
4773,7019
4846,7383
5052,7691
5231,7811
5209,7851
5202,7883
5250,7969
5721,7969
5724,7970
5943,7970
5943,8069
5935,8069
5935,8579
6075,8579
6286,8517
6333,8480
6407,8592
7407,9592
7679,9773
8000,9837
9498,9837
9807,9965
10191,9965
10546,9819
10818,9547
10965,9192
10965,8808
10837,8499
10965,8192
10965,7808
10837,7499
10965,7192
10965,6808
10819,6453
10547,6181
10515,6168
10611,6073
10791,6073
10981,5994
13239,5994
13427,6072
13791,6073
14128,5934
14385,5676
14525,5340
14525,4976
14525,6162
13501,6162
13192,6034
12808,6034
12453,6180
12181,6452
12034,6807
12034,7191
12162,7500
12034,7807
12034,8191
12162,8500
12034,8807
12034,9191
12180,9546
12452,9818
12807,9965
13191,9965
13406,9876
18088,9876
18230,9935
18586,9935
18916,9799
19168,9547
19305,9218
19306,8861
19306,10450
5835,10450
5835,8579
5835,8069
5250,8069
5202,8156
5209,8187
5314,8380
5485,8517
5695,8579
5835,8579
5835,10450
4533,10450
4533,8183
4522,7952
4454,7788
4356,7757
4019,8094
4356,8431
4454,8400
4533,8183
4533,10450
50,10450
50,50
20950,50
20950,10450
" /> 
</g>
<g style="fill:#00A000; fill-opacity:0.0; 
stroke:#00A000; stroke-width:100; stroke-opacity:1; 
stroke-linecap:round; stroke-linejoin:round;">
<polyline fill="none;"
points="20950,10450
19306,10450
19306,8861
19249,8724
19305,8588
19306,8231
19169,7902
19033,7765
19152,7646
19286,7324
19286,6975
19153,6653
18906,6406
18757,6344
18580,6226
18259,6162
14525,6162
14525,4976
14386,4639
14140,4392
14140,3233
14128,3024
14070,2884
13978,2860
13907,2931
13907,2789
13883,2696
13686,2627
13477,2638
13337,2696
13313,2789
13610,3086
13907,2789
13907,2931
13680,3157
13978,3454
14070,3430
14140,3233
14140,4392
14129,4381
13907,4289
13907,3525
13610,3228
13539,3298
13539,3157
13242,2860
13149,2884
13080,3081
13091,3290
13149,3430
13242,3454
13539,3157
13539,3298
13313,3525
13337,3618
13534,3687
13742,3676
13883,3618
13907,3525
13907,4289
13793,4242
13428,4241
13239,4320
11140,4320
11140,3233
11128,3024
11070,2884
10978,2860
10907,2931
10907,2789
10883,2696
10686,2627
10477,2638
10337,2696
10313,2789
10610,3086
10907,2789
10907,2931
10680,3157
10978,3454
11070,3430
11140,3233
11140,4320
10980,4320
10907,4289
10907,3525
10610,3228
10539,3298
10539,3157
10242,2860
10149,2884
10080,3081
10091,3290
10149,3430
10242,3454
10539,3157
10539,3298
10313,3525
10337,3618
10534,3687
10742,3676
10883,3618
10907,3525
10907,4289
10793,4242
10428,4241
10143,4359
10022,4383
9829,4512
9719,4347
9718,4347
9659,4049
9477,3777
8740,3040
8723,2999
8723,2463
8728,2458
8826,2223
8826,1968
8826,1368
8729,1132
8549,952
8313,854
8058,854
7458,854
7223,951
7043,1131
6994,1249
6967,1240
6749,1251
6597,1314
6570,1409
6885,1724
6891,1718
6945,1772
6945,1817
6891,1871
6885,1865
6815,1936
6815,1795
6499,1480
6404,1507
6331,1713
6341,1932
6404,2083
6499,2110
6815,1795
6815,1936
6570,2181
6597,2276
6804,2350
6994,2340
7042,2457
7048,2463
7048,2870
6961,2840
6753,2851
6613,2909
6588,3002
6810,3224
6634,3189
6518,3072
6425,3097
6402,3162
6346,3162
5439,2255
5465,2192
5465,1808
5319,1453
5047,1181
4692,1034
4308,1034
3998,1162
3501,1162
3192,1034
2808,1034
2453,1180
2181,1452
2034,1807
2034,2191
2180,2546
2452,2818
2807,2965
3191,2965
3501,2837
3737,2837
3907,3092
4962,4146
4692,4034
4308,4034
3953,4180
3749,4384
3547,4181
3192,4034
2808,4034
2453,4180
2181,4452
2034,4807
2034,5191
2111,5377
2111,7580
1978,7900
1978,8286
2125,8643
2398,8916
2754,9064
3141,9065
3497,8917
3769,8646
3859,8679
4090,8668
4254,8600
4285,8502
3948,8165
3943,8170
3919,8146
3919,8042
3943,8018
3948,8023
4285,7686
4254,7588
4037,7509
3807,7520
3786,7529
3786,6794
4000,6837
4810,6837
4773,7019
4846,7383
5052,7691
5231,7811
5209,7851
5202,7883
5250,7969
5721,7969
5724,7970
5943,7970
5943,8069
5935,8069
5935,8579
6075,8579
6286,8517
6333,8480
6407,8592
7407,9592
7679,9773
8000,9837
9498,9837
9807,9965
10191,9965
10546,9819
10818,9547
10965,9192
10965,8808
10837,8499
10965,8192
10965,7808
10837,7499
10965,7192
10965,6808
10819,6453
10547,6181
10515,6168
10611,6073
10791,6073
10981,5994
13239,5994
13427,6072
13791,6073
14128,5934
14385,5676
14525,5340
14525,4976
14525,6162
13501,6162
13192,6034
12808,6034
12453,6180
12181,6452
12034,6807
12034,7191
12162,7500
12034,7807
12034,8191
12162,8500
12034,8807
12034,9191
12180,9546
12452,9818
12807,9965
13191,9965
13406,9876
18088,9876
18230,9935
18586,9935
18916,9799
19168,9547
19305,9218
19306,8861
19306,10450
5835,10450
5835,8579
5835,8069
5250,8069
5202,8156
5209,8187
5314,8380
5485,8517
5695,8579
5835,8579
5835,10450
4533,10450
4533,8183
4522,7952
4454,7788
4356,7757
4019,8094
4356,8431
4454,8400
4533,8183
4533,10450
50,10450
50,50
20950,50
20950,10450
" /> 
</g>
<g style="fill:#FFFFFF; fill-opacity:0.0; 
stroke:#FFFFFF; stroke-width:39.3701; stroke-opacity:1; 
stroke-linecap:round; stroke-linejoin:round;">
</g>
<g style="fill:#FFFFFF; fill-opacity:1.0; 
stroke:#FFFFFF; stroke-width:39.3701; stroke-opacity:1; 
stroke-linecap:round; stroke-linejoin:round;">
<circle cx="13610.2" cy="3157.48" r="140.315" /> 
<circle cx="13610.2" cy="5157.48" r="140.315" /> 
<circle cx="10610.2" cy="3157.48" r="140.315" /> 
<circle cx="10610.2" cy="5157.48" r="140.315" /> 
<circle cx="18409.4" cy="9039.37" r="98.4252" /> 
<circle cx="18409.4" cy="8409.45" r="98.4252" /> 
<circle cx="18409.4" cy="7779.53" r="98.4252" /> 
<circle cx="18409.4" cy="7149.61" r="98.4252" /> 
<circle cx="4500" cy="2000" r="140.315" /> 
<circle cx="4500" cy="5000" r="140.315" /> 
<circle cx="3000" cy="2000" r="140.315" /> 
<circle cx="3000" cy="5000" r="140.315" /> 
<circle cx="10000" cy="9000" r="140.315" /> 
<circle cx="13000" cy="9000" r="140.315" /> 
<circle cx="10000" cy="8000" r="140.315" /> 
<circle cx="13000" cy="8000" r="140.315" /> 
<circle cx="10000" cy="7000" r="140.315" /> 
<circle cx="13000" cy="7000" r="140.315" /> 
<circle cx="7885.83" cy="1795.28" r="180.315" /> 
<circle cx="6885.83" cy="1795.28" r="180.315" /> 
<circle cx="2948.82" cy="8094.49" r="140.315" /> 
<circle cx="3948.82" cy="8094.49" r="140.315" /> 
<circle cx="5885.83" cy="5019.69" r="140.315" /> 
<circle cx="5885.83" cy="6019.69" r="140.315" /> 
<circle cx="5885.83" cy="7019.69" r="140.315" /> 
<circle cx="5885.83" cy="8019.69" r="140.315" /> 
<circle cx="8885.83" cy="8019.69" r="140.315" /> 
<circle cx="8885.83" cy="7019.69" r="140.315" /> 
<circle cx="8885.83" cy="6019.69" r="140.315" /> 
<circle cx="8885.83" cy="5019.69" r="140.315" /> 
<circle cx="7885.83" cy="3370.08" r="140.315" /> 
<circle cx="6885.83" cy="3370.08" r="140.315" /> 
</g> 
</svg>
