G04 (created by PCBNEW (2013-may-18)-stable) date Tue 16 Dec 2014 03:47:30 PM EET*
%MOIN*%
G04 Gerber Fmt 3.4, Leading zero omitted, Abs format*
%FSLAX34Y34*%
G01*
G70*
G90*
G04 APERTURE LIST*
%ADD10C,0.00590551*%
%ADD11C,0.012*%
%ADD12C,0.008*%
%ADD13C,0.003*%
%ADD14C,0.01*%
%ADD15C,0.006*%
%ADD16C,0.015*%
%ADD17C,0.0035*%
%ADD18C,0.01125*%
G04 APERTURE END LIST*
G54D10*
G54D11*
X9448Y-11492D02*
X9448Y-11692D01*
X9448Y-14492D02*
X9448Y-14292D01*
X9448Y-14292D02*
X9848Y-14292D01*
X9848Y-14292D02*
X9848Y-11692D01*
X9848Y-11692D02*
X9048Y-11692D01*
X9048Y-11692D02*
X9048Y-14292D01*
X9048Y-14292D02*
X9448Y-14292D01*
X9648Y-11692D02*
X9848Y-11892D01*
X9129Y-16141D02*
X9329Y-16141D01*
X12129Y-16141D02*
X11929Y-16141D01*
X11929Y-16141D02*
X11929Y-15741D01*
X11929Y-15741D02*
X9329Y-15741D01*
X9329Y-15741D02*
X9329Y-16541D01*
X9329Y-16541D02*
X11929Y-16541D01*
X11929Y-16541D02*
X11929Y-16141D01*
X9329Y-15941D02*
X9529Y-15741D01*
X12204Y-10161D02*
X12204Y-9961D01*
X12204Y-7161D02*
X12204Y-7361D01*
X12204Y-7361D02*
X11804Y-7361D01*
X11804Y-7361D02*
X11804Y-9961D01*
X11804Y-9961D02*
X12604Y-9961D01*
X12604Y-9961D02*
X12604Y-7361D01*
X12604Y-7361D02*
X12204Y-7361D01*
X12004Y-9961D02*
X11804Y-9761D01*
X13188Y-10161D02*
X13188Y-9961D01*
X13188Y-7161D02*
X13188Y-7361D01*
X13188Y-7361D02*
X12788Y-7361D01*
X12788Y-7361D02*
X12788Y-9961D01*
X12788Y-9961D02*
X13588Y-9961D01*
X13588Y-9961D02*
X13588Y-7361D01*
X13588Y-7361D02*
X13188Y-7361D01*
X12988Y-9961D02*
X12788Y-9761D01*
X14173Y-10161D02*
X14173Y-9961D01*
X14173Y-7161D02*
X14173Y-7361D01*
X14173Y-7361D02*
X13773Y-7361D01*
X13773Y-7361D02*
X13773Y-9961D01*
X13773Y-9961D02*
X14573Y-9961D01*
X14573Y-9961D02*
X14573Y-7361D01*
X14573Y-7361D02*
X14173Y-7361D01*
X13973Y-9961D02*
X13773Y-9761D01*
G54D12*
X13718Y-19647D02*
X13718Y-18147D01*
G54D13*
X13405Y-18897D02*
G75*
G03X13405Y-18897I-707J0D01*
G74*
G01*
G54D14*
X13698Y-18147D02*
G75*
G03X13698Y-19648I-999J-750D01*
G74*
G01*
G54D15*
X12698Y-18447D02*
G75*
G03X12248Y-18897I0J-450D01*
G74*
G01*
X12698Y-19347D02*
G75*
G03X13148Y-18897I0J450D01*
G74*
G01*
X12698Y-18247D02*
G75*
G03X12048Y-18897I0J-650D01*
G74*
G01*
X12698Y-19547D02*
G75*
G03X13348Y-18897I0J650D01*
G74*
G01*
X12698Y-18047D02*
G75*
G03X11848Y-18897I0J-850D01*
G74*
G01*
X12698Y-19747D02*
G75*
G03X13548Y-18897I0J850D01*
G74*
G01*
G54D16*
X10598Y-12492D02*
X11098Y-12492D01*
X11098Y-12492D02*
X11098Y-13492D01*
X11098Y-13492D02*
X10598Y-13492D01*
X10598Y-11992D02*
X14598Y-11992D01*
X14598Y-11992D02*
X14598Y-13992D01*
X14598Y-13992D02*
X10598Y-13992D01*
X10598Y-13992D02*
X10598Y-11992D01*
G54D11*
X8767Y-11224D02*
X8767Y-13204D01*
X8767Y-13204D02*
X7767Y-13204D01*
X7767Y-13204D02*
X7767Y-11204D01*
X7767Y-11204D02*
X8767Y-11204D01*
X8517Y-11204D02*
X8767Y-11454D01*
G54D10*
X13374Y-2559D02*
G75*
G03X13374Y-2559I-1366J0D01*
G74*
G01*
X16141Y-16929D02*
X16141Y-15354D01*
X16141Y-15354D02*
X12795Y-15354D01*
X12795Y-15354D02*
X12795Y-16929D01*
X12795Y-16929D02*
X16141Y-16929D01*
G54D15*
X9145Y-17110D02*
X10145Y-17110D01*
X10145Y-17110D02*
X10145Y-19110D01*
X10145Y-19110D02*
X9145Y-19110D01*
X9145Y-19110D02*
X9145Y-17110D01*
G54D12*
X9671Y-13075D02*
X9409Y-13242D01*
X9671Y-13361D02*
X9121Y-13361D01*
X9121Y-13170D01*
X9147Y-13123D01*
X9173Y-13099D01*
X9226Y-13075D01*
X9304Y-13075D01*
X9357Y-13099D01*
X9383Y-13123D01*
X9409Y-13170D01*
X9409Y-13361D01*
X9173Y-12884D02*
X9147Y-12861D01*
X9121Y-12813D01*
X9121Y-12694D01*
X9147Y-12646D01*
X9173Y-12623D01*
X9226Y-12599D01*
X9278Y-12599D01*
X9357Y-12623D01*
X9671Y-12908D01*
X9671Y-12599D01*
X10546Y-16364D02*
X10379Y-16102D01*
X10260Y-16364D02*
X10260Y-15814D01*
X10451Y-15814D01*
X10498Y-15840D01*
X10522Y-15866D01*
X10546Y-15919D01*
X10546Y-15997D01*
X10522Y-16050D01*
X10498Y-16076D01*
X10451Y-16102D01*
X10260Y-16102D01*
X11022Y-16364D02*
X10737Y-16364D01*
X10879Y-16364D02*
X10879Y-15814D01*
X10832Y-15892D01*
X10784Y-15945D01*
X10737Y-15971D01*
X12427Y-8744D02*
X12165Y-8911D01*
X12427Y-9030D02*
X11877Y-9030D01*
X11877Y-8839D01*
X11903Y-8792D01*
X11929Y-8768D01*
X11982Y-8744D01*
X12060Y-8744D01*
X12113Y-8768D01*
X12139Y-8792D01*
X12165Y-8839D01*
X12165Y-9030D01*
X11877Y-8578D02*
X11877Y-8268D01*
X12086Y-8435D01*
X12086Y-8363D01*
X12113Y-8316D01*
X12139Y-8292D01*
X12191Y-8268D01*
X12322Y-8268D01*
X12374Y-8292D01*
X12401Y-8316D01*
X12427Y-8363D01*
X12427Y-8506D01*
X12401Y-8554D01*
X12374Y-8578D01*
X13411Y-8744D02*
X13149Y-8911D01*
X13411Y-9030D02*
X12861Y-9030D01*
X12861Y-8839D01*
X12887Y-8792D01*
X12913Y-8768D01*
X12966Y-8744D01*
X13044Y-8744D01*
X13097Y-8768D01*
X13123Y-8792D01*
X13149Y-8839D01*
X13149Y-9030D01*
X13044Y-8316D02*
X13411Y-8316D01*
X12835Y-8435D02*
X13228Y-8554D01*
X13228Y-8244D01*
X14395Y-8744D02*
X14133Y-8911D01*
X14395Y-9030D02*
X13845Y-9030D01*
X13845Y-8839D01*
X13872Y-8792D01*
X13898Y-8768D01*
X13950Y-8744D01*
X14029Y-8744D01*
X14081Y-8768D01*
X14107Y-8792D01*
X14133Y-8839D01*
X14133Y-9030D01*
X13845Y-8292D02*
X13845Y-8530D01*
X14107Y-8554D01*
X14081Y-8530D01*
X14055Y-8482D01*
X14055Y-8363D01*
X14081Y-8316D01*
X14107Y-8292D01*
X14160Y-8268D01*
X14291Y-8268D01*
X14343Y-8292D01*
X14369Y-8316D01*
X14395Y-8363D01*
X14395Y-8482D01*
X14369Y-8530D01*
X14343Y-8554D01*
G54D17*
X12569Y-17547D02*
X12541Y-17533D01*
X12512Y-17504D01*
X12469Y-17461D01*
X12441Y-17447D01*
X12412Y-17447D01*
X12426Y-17519D02*
X12398Y-17504D01*
X12369Y-17476D01*
X12355Y-17419D01*
X12355Y-17319D01*
X12369Y-17261D01*
X12398Y-17233D01*
X12426Y-17219D01*
X12484Y-17219D01*
X12512Y-17233D01*
X12541Y-17261D01*
X12555Y-17319D01*
X12555Y-17419D01*
X12541Y-17476D01*
X12512Y-17504D01*
X12484Y-17519D01*
X12426Y-17519D01*
X12841Y-17519D02*
X12669Y-17519D01*
X12755Y-17519D02*
X12755Y-17219D01*
X12726Y-17261D01*
X12698Y-17290D01*
X12669Y-17304D01*
X10419Y-20519D02*
X10419Y-20219D01*
X10534Y-20219D01*
X10562Y-20233D01*
X10576Y-20247D01*
X10591Y-20276D01*
X10591Y-20319D01*
X10576Y-20347D01*
X10562Y-20361D01*
X10534Y-20376D01*
X10419Y-20376D01*
X10719Y-20519D02*
X10719Y-20219D01*
X10719Y-20361D02*
X10891Y-20361D01*
X10891Y-20519D02*
X10891Y-20219D01*
X11091Y-20219D02*
X11148Y-20219D01*
X11176Y-20233D01*
X11205Y-20261D01*
X11219Y-20319D01*
X11219Y-20419D01*
X11205Y-20476D01*
X11176Y-20504D01*
X11148Y-20519D01*
X11091Y-20519D01*
X11062Y-20504D01*
X11034Y-20476D01*
X11019Y-20419D01*
X11019Y-20319D01*
X11034Y-20261D01*
X11062Y-20233D01*
X11091Y-20219D01*
X11305Y-20219D02*
X11476Y-20219D01*
X11391Y-20519D02*
X11391Y-20219D01*
X11634Y-20219D02*
X11691Y-20219D01*
X11719Y-20233D01*
X11748Y-20261D01*
X11762Y-20319D01*
X11762Y-20419D01*
X11748Y-20476D01*
X11719Y-20504D01*
X11691Y-20519D01*
X11634Y-20519D01*
X11605Y-20504D01*
X11576Y-20476D01*
X11562Y-20419D01*
X11562Y-20319D01*
X11576Y-20261D01*
X11605Y-20233D01*
X11634Y-20219D01*
X11891Y-20404D02*
X12119Y-20404D01*
X12219Y-20219D02*
X12391Y-20219D01*
X12305Y-20519D02*
X12305Y-20219D01*
X12662Y-20519D02*
X12562Y-20376D01*
X12491Y-20519D02*
X12491Y-20219D01*
X12605Y-20219D01*
X12634Y-20233D01*
X12648Y-20247D01*
X12662Y-20276D01*
X12662Y-20319D01*
X12648Y-20347D01*
X12634Y-20361D01*
X12605Y-20376D01*
X12491Y-20376D01*
X12776Y-20433D02*
X12919Y-20433D01*
X12748Y-20519D02*
X12848Y-20219D01*
X12948Y-20519D01*
X13048Y-20519D02*
X13048Y-20219D01*
X13219Y-20519D01*
X13219Y-20219D01*
X13348Y-20504D02*
X13391Y-20519D01*
X13462Y-20519D01*
X13491Y-20504D01*
X13505Y-20490D01*
X13519Y-20461D01*
X13519Y-20433D01*
X13505Y-20404D01*
X13491Y-20390D01*
X13462Y-20376D01*
X13405Y-20361D01*
X13376Y-20347D01*
X13362Y-20333D01*
X13348Y-20304D01*
X13348Y-20276D01*
X13362Y-20247D01*
X13376Y-20233D01*
X13405Y-20219D01*
X13476Y-20219D01*
X13519Y-20233D01*
X13648Y-20519D02*
X13648Y-20219D01*
X13776Y-20504D02*
X13819Y-20519D01*
X13891Y-20519D01*
X13919Y-20504D01*
X13934Y-20490D01*
X13948Y-20461D01*
X13948Y-20433D01*
X13934Y-20404D01*
X13919Y-20390D01*
X13891Y-20376D01*
X13834Y-20361D01*
X13805Y-20347D01*
X13791Y-20333D01*
X13776Y-20304D01*
X13776Y-20276D01*
X13791Y-20247D01*
X13805Y-20233D01*
X13834Y-20219D01*
X13905Y-20219D01*
X13948Y-20233D01*
X14034Y-20219D02*
X14205Y-20219D01*
X14119Y-20519D02*
X14119Y-20219D01*
X14362Y-20219D02*
X14419Y-20219D01*
X14448Y-20233D01*
X14476Y-20261D01*
X14491Y-20319D01*
X14491Y-20419D01*
X14476Y-20476D01*
X14448Y-20504D01*
X14419Y-20519D01*
X14362Y-20519D01*
X14334Y-20504D01*
X14305Y-20476D01*
X14291Y-20419D01*
X14291Y-20319D01*
X14305Y-20261D01*
X14334Y-20233D01*
X14362Y-20219D01*
X14791Y-20519D02*
X14691Y-20376D01*
X14619Y-20519D02*
X14619Y-20219D01*
X14734Y-20219D01*
X14762Y-20233D01*
X14776Y-20247D01*
X14791Y-20276D01*
X14791Y-20319D01*
X14776Y-20347D01*
X14762Y-20361D01*
X14734Y-20376D01*
X14619Y-20376D01*
G54D18*
X10381Y-13431D02*
X9681Y-13431D01*
X10315Y-12959D02*
X10348Y-12981D01*
X10381Y-13045D01*
X10381Y-13088D01*
X10348Y-13152D01*
X10281Y-13195D01*
X10215Y-13217D01*
X10081Y-13238D01*
X9981Y-13238D01*
X9848Y-13217D01*
X9781Y-13195D01*
X9715Y-13152D01*
X9681Y-13088D01*
X9681Y-13045D01*
X9715Y-12981D01*
X9748Y-12959D01*
X10381Y-12531D02*
X10381Y-12788D01*
X10381Y-12659D02*
X9681Y-12659D01*
X9781Y-12702D01*
X9848Y-12745D01*
X9881Y-12788D01*
G54D11*
G54D14*
X10893Y-13075D02*
X11084Y-13075D01*
X10855Y-13275D02*
X10988Y-12575D01*
X11122Y-13275D01*
X11198Y-12575D02*
X11426Y-12575D01*
X11312Y-13275D02*
X11312Y-12575D01*
X11503Y-12575D02*
X11731Y-12575D01*
X11617Y-13275D02*
X11617Y-12575D01*
X11865Y-13275D02*
X11865Y-12575D01*
X12055Y-13275D02*
X12055Y-12575D01*
X12284Y-13275D01*
X12284Y-12575D01*
X12550Y-12942D02*
X12550Y-13275D01*
X12417Y-12575D02*
X12550Y-12942D01*
X12684Y-12575D01*
X12874Y-12875D02*
X12836Y-12842D01*
X12817Y-12808D01*
X12798Y-12742D01*
X12798Y-12708D01*
X12817Y-12642D01*
X12836Y-12608D01*
X12874Y-12575D01*
X12950Y-12575D01*
X12988Y-12608D01*
X13007Y-12642D01*
X13026Y-12708D01*
X13026Y-12742D01*
X13007Y-12808D01*
X12988Y-12842D01*
X12950Y-12875D01*
X12874Y-12875D01*
X12836Y-12908D01*
X12817Y-12942D01*
X12798Y-13008D01*
X12798Y-13142D01*
X12817Y-13208D01*
X12836Y-13242D01*
X12874Y-13275D01*
X12950Y-13275D01*
X12988Y-13242D01*
X13007Y-13208D01*
X13026Y-13142D01*
X13026Y-13008D01*
X13007Y-12942D01*
X12988Y-12908D01*
X12950Y-12875D01*
X13388Y-12575D02*
X13198Y-12575D01*
X13179Y-12908D01*
X13198Y-12875D01*
X13236Y-12842D01*
X13331Y-12842D01*
X13369Y-12875D01*
X13388Y-12908D01*
X13407Y-12975D01*
X13407Y-13142D01*
X13388Y-13208D01*
X13369Y-13242D01*
X13331Y-13275D01*
X13236Y-13275D01*
X13198Y-13242D01*
X13179Y-13208D01*
X13579Y-13008D02*
X13884Y-13008D01*
X14074Y-13275D02*
X14074Y-12575D01*
X14226Y-12575D01*
X14265Y-12608D01*
X14284Y-12642D01*
X14303Y-12708D01*
X14303Y-12808D01*
X14284Y-12875D01*
X14265Y-12908D01*
X14226Y-12942D01*
X14074Y-12942D01*
G54D11*
G54D12*
X9291Y-12371D02*
X9310Y-12390D01*
X9329Y-12447D01*
X9329Y-12485D01*
X9310Y-12542D01*
X9272Y-12580D01*
X9234Y-12599D01*
X9158Y-12619D01*
X9101Y-12619D01*
X9024Y-12599D01*
X8986Y-12580D01*
X8948Y-12542D01*
X8929Y-12485D01*
X8929Y-12447D01*
X8948Y-12390D01*
X8967Y-12371D01*
X9329Y-11990D02*
X9329Y-12219D01*
X9329Y-12104D02*
X8929Y-12104D01*
X8986Y-12142D01*
X9024Y-12180D01*
X9043Y-12219D01*
G54D10*
X11717Y-1970D02*
X11717Y-1576D01*
X11811Y-1576D01*
X11867Y-1595D01*
X11904Y-1632D01*
X11923Y-1670D01*
X11942Y-1745D01*
X11942Y-1801D01*
X11923Y-1876D01*
X11904Y-1914D01*
X11867Y-1951D01*
X11811Y-1970D01*
X11717Y-1970D01*
X12317Y-1970D02*
X12092Y-1970D01*
X12204Y-1970D02*
X12204Y-1576D01*
X12167Y-1632D01*
X12129Y-1670D01*
X12092Y-1689D01*
X13083Y-1931D02*
X12952Y-1743D01*
X12859Y-1931D02*
X12859Y-1537D01*
X13008Y-1537D01*
X13046Y-1556D01*
X13065Y-1574D01*
X13083Y-1612D01*
X13083Y-1668D01*
X13065Y-1706D01*
X13046Y-1724D01*
X13008Y-1743D01*
X12859Y-1743D01*
X13458Y-1556D02*
X13421Y-1537D01*
X13365Y-1537D01*
X13308Y-1556D01*
X13271Y-1593D01*
X13252Y-1631D01*
X13233Y-1706D01*
X13233Y-1762D01*
X13252Y-1837D01*
X13271Y-1874D01*
X13308Y-1912D01*
X13365Y-1931D01*
X13402Y-1931D01*
X13458Y-1912D01*
X13477Y-1893D01*
X13477Y-1762D01*
X13402Y-1762D01*
X13777Y-1724D02*
X13833Y-1743D01*
X13852Y-1762D01*
X13871Y-1799D01*
X13871Y-1856D01*
X13852Y-1893D01*
X13833Y-1912D01*
X13796Y-1931D01*
X13646Y-1931D01*
X13646Y-1537D01*
X13777Y-1537D01*
X13815Y-1556D01*
X13833Y-1574D01*
X13852Y-1612D01*
X13852Y-1649D01*
X13833Y-1687D01*
X13815Y-1706D01*
X13777Y-1724D01*
X13646Y-1724D01*
X14040Y-1781D02*
X14340Y-1781D01*
X14715Y-1931D02*
X14527Y-1931D01*
X14527Y-1537D01*
X14846Y-1724D02*
X14977Y-1724D01*
X15033Y-1931D02*
X14846Y-1931D01*
X14846Y-1537D01*
X15033Y-1537D01*
X15202Y-1931D02*
X15202Y-1537D01*
X15296Y-1537D01*
X15352Y-1556D01*
X15389Y-1593D01*
X15408Y-1631D01*
X15427Y-1706D01*
X15427Y-1762D01*
X15408Y-1837D01*
X15389Y-1874D01*
X15352Y-1912D01*
X15296Y-1931D01*
X15202Y-1931D01*
X14041Y-17266D02*
X14098Y-17285D01*
X14191Y-17285D01*
X14229Y-17266D01*
X14248Y-17247D01*
X14266Y-17210D01*
X14266Y-17172D01*
X14248Y-17135D01*
X14229Y-17116D01*
X14191Y-17097D01*
X14116Y-17079D01*
X14079Y-17060D01*
X14060Y-17041D01*
X14041Y-17004D01*
X14041Y-16966D01*
X14060Y-16929D01*
X14079Y-16910D01*
X14116Y-16891D01*
X14210Y-16891D01*
X14266Y-16910D01*
X14398Y-16891D02*
X14491Y-17285D01*
X14566Y-17004D01*
X14641Y-17285D01*
X14735Y-16891D01*
X15091Y-17285D02*
X14866Y-17285D01*
X14979Y-17285D02*
X14979Y-16891D01*
X14941Y-16947D01*
X14904Y-16985D01*
X14866Y-17004D01*
X13723Y-15101D02*
X13779Y-15119D01*
X13873Y-15119D01*
X13910Y-15101D01*
X13929Y-15082D01*
X13948Y-15044D01*
X13948Y-15007D01*
X13929Y-14970D01*
X13910Y-14951D01*
X13873Y-14932D01*
X13798Y-14913D01*
X13760Y-14895D01*
X13742Y-14876D01*
X13723Y-14838D01*
X13723Y-14801D01*
X13742Y-14763D01*
X13760Y-14745D01*
X13798Y-14726D01*
X13892Y-14726D01*
X13948Y-14745D01*
X14116Y-15119D02*
X14116Y-14726D01*
X14266Y-14726D01*
X14304Y-14745D01*
X14323Y-14763D01*
X14341Y-14801D01*
X14341Y-14857D01*
X14323Y-14895D01*
X14304Y-14913D01*
X14266Y-14932D01*
X14116Y-14932D01*
X14491Y-15101D02*
X14548Y-15119D01*
X14641Y-15119D01*
X14679Y-15101D01*
X14698Y-15082D01*
X14716Y-15044D01*
X14716Y-15007D01*
X14698Y-14970D01*
X14679Y-14951D01*
X14641Y-14932D01*
X14566Y-14913D01*
X14529Y-14895D01*
X14510Y-14876D01*
X14491Y-14838D01*
X14491Y-14801D01*
X14510Y-14763D01*
X14529Y-14745D01*
X14566Y-14726D01*
X14660Y-14726D01*
X14716Y-14745D01*
X14829Y-14726D02*
X15054Y-14726D01*
X14941Y-15119D02*
X14941Y-14726D01*
G54D15*
X10517Y-18331D02*
X10217Y-18331D01*
X10217Y-18217D01*
X10231Y-18188D01*
X10245Y-18174D01*
X10274Y-18160D01*
X10317Y-18160D01*
X10345Y-18174D01*
X10359Y-18188D01*
X10374Y-18217D01*
X10374Y-18331D01*
X10517Y-17874D02*
X10517Y-18045D01*
X10517Y-17960D02*
X10217Y-17960D01*
X10259Y-17988D01*
X10288Y-18017D01*
X10302Y-18045D01*
M02*
