<?xml version="1.0" standalone="no"?>
 <!DOCTYPE svg PUBLIC "-//W3C//DTD SVG 1.1//EN" 
 "http://www.w3.org/Graphics/SVG/1.1/DTD/svg11.dtd"> 
<svg xmlns="http://www.w3.org/2000/svg" version="1.1" 
    width="5.334cm" height="2.667cm" viewBox="0 0 21000 10500 ">
<title>SVG Picture created as christmas-tree-F_SilkS.svg date 2014/12/19 20:56:42 </title>
  <desc>Picture generated by PCBNEW </desc>
<g style="fill:#000000; fill-opacity:1;stroke:#000000; stroke-opacity:1;
stroke-linecap:round; stroke-linejoin:round; "
 transform="translate(0 0) scale(1 1)">
</g>
<g style="fill:#00A0A0; fill-opacity:0.0; 
stroke:#00A0A0; stroke-width:80; stroke-opacity:1; 
stroke-linecap:round; stroke-linejoin:round;">
<path d="M11576 4000
L11634 4019
L11729 4019
L11767 4000
L11786 3981
L11805 3943
L11805 3905
L11786 3867
L11767 3847
L11729 3828
L11653 3809
L11614 3790
L11595 3771
L11576 3733
L11576 3695
L11595 3657
L11614 3638
L11653 3619
L11748 3619
L11805 3638
" />
<path d="M11938 3619
L12034 4019
L12110 3733
L12186 4019
L12281 3619
" />
<path d="M12643 4019
L12414 4019
" />
<path d="M12529 4019
L12529 3619
L12491 3676
L12453 3714
L12414 3733
" />
<path d="M10805 4700
L10862 4719
L10957 4719
L10995 4700
L11014 4681
L11034 4643
L11034 4605
L11014 4567
L10995 4547
L10957 4528
L10881 4509
L10843 4490
L10824 4471
L10805 4433
L10805 4395
L10824 4357
L10843 4338
L10881 4319
L10976 4319
L11034 4338
" />
<path d="M11167 4319
L11262 4719
L11338 4433
L11414 4719
L11510 4319
" />
<path d="M11567 4757
L11872 4757
" />
<path d="M11967 4719
L11967 4319
L12119 4319
L12157 4338
L12176 4357
L12195 4395
L12195 4452
L12176 4490
L12157 4509
L12119 4528
L11967 4528
" />
<path d="M12367 4319
L12367 4643
L12386 4681
L12405 4700
L12443 4719
L12519 4719
L12557 4700
L12576 4681
L12595 4643
L12595 4319
" />
<path d="M12767 4700
L12824 4719
L12919 4719
L12957 4700
L12976 4681
L12995 4643
L12995 4605
L12976 4567
L12957 4547
L12919 4528
L12843 4509
L12805 4490
L12786 4471
L12767 4433
L12767 4395
L12786 4357
L12805 4338
L12843 4319
L12938 4319
L12995 4338
" />
<path d="M13167 4719
L13167 4319
" />
<path d="M13167 4509
L13395 4509
" />
<path d="M13395 4719
L13395 4319
" />
</g>
<g style="fill:#00A0A0; fill-opacity:0.0; 
stroke:#00A0A0; stroke-width:59.0551; stroke-opacity:1; 
stroke-linecap:round; stroke-linejoin:round;">
<path d="M17820 8385
L17427 8385
L17427 8291
L17445 8235
L17483 8197
L17520 8178
L17595 8160
L17652 8160
L17727 8178
L17764 8197
L17802 8235
L17820 8291
L17820 8385
" />
<path d="M17820 7785
L17820 8010
" />
<path d="M17820 7897
L17427 7897
L17483 7935
L17520 7972
L17539 8010
" />
<path d="M17781 7018
L17593 7149
" />
<path d="M17781 7243
L17387 7243
L17387 7093
L17406 7055
L17425 7037
L17462 7018
L17518 7018
L17556 7037
L17575 7055
L17593 7093
L17593 7243
" />
<path d="M17406 6643
L17387 6680
L17387 6737
L17406 6793
L17443 6830
L17481 6849
L17556 6868
L17612 6868
L17687 6849
L17725 6830
L17762 6793
L17781 6737
L17781 6699
L17762 6643
L17743 6624
L17612 6624
L17612 6699
" />
<path d="M17575 6324
L17593 6268
L17612 6249
L17650 6230
L17706 6230
L17743 6249
L17762 6268
L17781 6305
L17781 6455
L17387 6455
L17387 6324
L17406 6287
L17425 6268
L17462 6249
L17500 6249
L17537 6268
L17556 6287
L17575 6324
L17575 6455
" />
<path d="M17631 6062
L17631 5762
" />
<path d="M17781 5387
L17781 5574
L17387 5574
" />
<path d="M17575 5256
L17575 5124
" />
<path d="M17781 5068
L17781 5256
L17387 5256
L17387 5068
" />
<path d="M17781 4899
L17387 4899
L17387 4806
L17406 4749
L17443 4712
L17481 4693
L17556 4674
L17612 4674
L17687 4693
L17725 4712
L17762 4749
L17781 4806
L17781 4899
" />
</g>
<g style="fill:#00A0A0; fill-opacity:0.0; 
stroke:#00A0A0; stroke-width:80; stroke-opacity:1; 
stroke-linecap:round; stroke-linejoin:round;">
<path d="M4722 3583
L4460 3750
" />
<path d="M4722 3869
L4172 3869
L4172 3678
L4198 3630
L4225 3607
L4277 3583
L4355 3583
L4408 3607
L4434 3630
L4460 3678
L4460 3869
" />
<path d="M4225 3392
L4198 3369
L4172 3321
L4172 3202
L4198 3154
L4225 3130
L4277 3107
L4329 3107
L4408 3130
L4722 3416
L4722 3107
" />
<path d="M3222 3583
L2960 3750
" />
<path d="M3222 3869
L2672 3869
L2672 3678
L2698 3630
L2725 3607
L2777 3583
L2855 3583
L2908 3607
L2934 3630
L2960 3678
L2960 3869
" />
<path d="M3222 3107
L3222 3392
" />
<path d="M3222 3250
L2672 3250
L2751 3297
L2803 3345
L2829 3392
" />
<path d="M11416 9222
L11250 8960
" />
<path d="M11130 9222
L11130 8672
L11321 8672
L11369 8698
L11392 8725
L11416 8777
L11416 8855
L11392 8908
L11369 8934
L11321 8960
L11130 8960
" />
<path d="M11583 8672
L11892 8672
L11726 8882
L11797 8882
L11845 8908
L11869 8934
L11892 8986
L11892 9117
L11869 9170
L11845 9196
L11797 9222
L11654 9222
L11607 9196
L11583 9170
" />
<path d="M11416 8222
L11250 7960
" />
<path d="M11130 8222
L11130 7672
L11321 7672
L11369 7698
L11392 7725
L11416 7777
L11416 7855
L11392 7908
L11369 7934
L11321 7960
L11130 7960
" />
<path d="M11845 7855
L11845 8222
" />
<path d="M11726 7646
L11607 8039
L11916 8039
" />
<path d="M11416 7222
L11250 6960
" />
<path d="M11130 7222
L11130 6672
L11321 6672
L11369 6698
L11392 6725
L11416 6777
L11416 6855
L11392 6908
L11369 6934
L11321 6960
L11130 6960
" />
<path d="M11869 6672
L11630 6672
L11607 6934
L11630 6908
L11678 6882
L11797 6882
L11845 6908
L11869 6934
L11892 6986
L11892 7117
L11869 7170
L11845 7196
L11797 7222
L11678 7222
L11630 7196
L11607 7170
" />
</g>
<g style="fill:#00A0A0; fill-opacity:0.0; 
stroke:#00A0A0; stroke-width:60; stroke-opacity:1; 
stroke-linecap:round; stroke-linejoin:round;">
<path d="M7164 2666
L7164 2366
L7278 2366
L7307 2380
L7321 2395
L7335 2423
L7335 2466
L7321 2495
L7307 2509
L7278 2523
L7164 2523
" />
<path d="M7621 2666
L7450 2666
" />
<path d="M7535 2666
L7535 2366
L7507 2409
L7478 2438
L7450 2452
" />
</g>
<g style="fill:#00A0A0; fill-opacity:0.0; 
stroke:#00A0A0; stroke-width:35; stroke-opacity:1; 
stroke-linecap:round; stroke-linejoin:round;">
<path d="M3420 6744
L3391 6730
L3363 6701
L3320 6658
L3291 6644
L3263 6644
" />
<path d="M3277 6715
L3248 6701
L3220 6673
L3205 6615
L3205 6515
L3220 6458
L3248 6430
L3277 6415
L3334 6415
L3363 6430
L3391 6458
L3405 6515
L3405 6615
L3391 6673
L3363 6701
L3334 6715
L3277 6715
" />
<path d="M3691 6715
L3520 6715
" />
<path d="M3605 6715
L3605 6415
L3577 6458
L3548 6487
L3520 6501
" />
<path d="M1270 9715
L1270 9415
L1384 9415
L1413 9430
L1427 9444
L1441 9473
L1441 9515
L1427 9544
L1413 9558
L1384 9573
L1270 9573
" />
<path d="M1570 9715
L1570 9415
" />
<path d="M1570 9558
L1741 9558
" />
<path d="M1741 9715
L1741 9415
" />
<path d="M1941 9415
L1998 9415
L2027 9430
L2055 9458
L2070 9515
L2070 9615
L2055 9673
L2027 9701
L1998 9715
L1941 9715
L1913 9701
L1884 9673
L1870 9615
L1870 9515
L1884 9458
L1913 9430
L1941 9415
" />
<path d="M2155 9415
L2327 9415
" />
<path d="M2241 9715
L2241 9415
" />
<path d="M2484 9415
L2541 9415
L2570 9430
L2598 9458
L2613 9515
L2613 9615
L2598 9673
L2570 9701
L2541 9715
L2484 9715
L2455 9701
L2427 9673
L2413 9615
L2413 9515
L2427 9458
L2455 9430
L2484 9415
" />
<path d="M2741 9601
L2970 9601
" />
<path d="M3070 9415
L3241 9415
" />
<path d="M3155 9715
L3155 9415
" />
<path d="M3513 9715
L3413 9573
" />
<path d="M3341 9715
L3341 9415
L3455 9415
L3484 9430
L3498 9444
L3513 9473
L3513 9515
L3498 9544
L3484 9558
L3455 9573
L3341 9573
" />
<path d="M3627 9630
L3770 9630
" />
<path d="M3598 9715
L3698 9415
L3798 9715
" />
<path d="M3898 9715
L3898 9415
L4070 9715
L4070 9415
" />
<path d="M4198 9701
L4241 9715
L4313 9715
L4341 9701
L4355 9687
L4370 9658
L4370 9630
L4355 9601
L4341 9587
L4313 9573
L4255 9558
L4227 9544
L4213 9530
L4198 9501
L4198 9473
L4213 9444
L4227 9430
L4255 9415
L4327 9415
L4370 9430
" />
<path d="M4498 9715
L4498 9415
" />
<path d="M4627 9701
L4670 9715
L4741 9715
L4770 9701
L4784 9687
L4798 9658
L4798 9630
L4784 9601
L4770 9587
L4741 9573
L4684 9558
L4655 9544
L4641 9530
L4627 9501
L4627 9473
L4641 9444
L4655 9430
L4684 9415
L4755 9415
L4798 9430
" />
<path d="M4884 9415
L5055 9415
" />
<path d="M4970 9715
L4970 9415
" />
<path d="M5213 9415
L5270 9415
L5298 9430
L5327 9458
L5341 9515
L5341 9615
L5327 9673
L5298 9701
L5270 9715
L5213 9715
L5184 9701
L5155 9673
L5141 9615
L5141 9515
L5155 9458
L5184 9430
L5213 9415
" />
<path d="M5641 9715
L5541 9573
" />
<path d="M5470 9715
L5470 9415
L5584 9415
L5613 9430
L5627 9444
L5641 9473
L5641 9515
L5627 9544
L5613 9558
L5584 9573
L5470 9573
" />
</g>
<g style="fill:#00A0A0; fill-opacity:0.0; 
stroke:#00A0A0; stroke-width:120; stroke-opacity:1; 
stroke-linecap:round; stroke-linejoin:round;">
</g>
<g style="fill:#00A0A0; fill-opacity:0.0; 
stroke:#00A0A0; stroke-width:112.5; stroke-opacity:1; 
stroke-linecap:round; stroke-linejoin:round;">
<path d="M6946 4303
L6946 3603
" />
<path d="M7417 4236
L7396 4269
L7332 4303
L7289 4303
L7225 4269
L7182 4203
L7160 4136
L7139 4003
L7139 3903
L7160 3769
L7182 3703
L7225 3636
L7289 3603
L7332 3603
L7396 3636
L7417 3669
" />
<path d="M7846 4303
L7589 4303
" />
<path d="M7717 4303
L7717 3603
L7675 3703
L7632 3769
L7589 3803
" />
</g>
<g style="fill:#00A0A0; fill-opacity:0.0; 
stroke:#00A0A0; stroke-width:120; stroke-opacity:1; 
stroke-linecap:round; stroke-linejoin:round;">
</g>
<g style="fill:#00A0A0; fill-opacity:0.0; 
stroke:#00A0A0; stroke-width:100; stroke-opacity:1; 
stroke-linecap:round; stroke-linejoin:round;">
<path d="M7469 8224
L7469 8033
" />
<path d="M7669 8262
L6969 8129
L7669 7995
" />
<path d="M6969 7919
L6969 7691
" />
<path d="M7669 7805
L6969 7805
" />
<path d="M6969 7614
L6969 7386
" />
<path d="M7669 7500
L6969 7500
" />
<path d="M7669 7253
L6969 7253
" />
<path d="M7669 7062
L6969 7062
L7669 6833
L6969 6833
" />
<path d="M7335 6567
L7669 6567
" />
<path d="M6969 6700
L7335 6567
L6969 6433
" />
<path d="M7269 6243
L7235 6281
L7202 6300
L7135 6319
L7102 6319
L7035 6300
L7002 6281
L6969 6243
L6969 6167
L7002 6129
L7035 6110
L7102 6091
L7135 6091
L7202 6110
L7235 6129
L7269 6167
L7269 6243
L7302 6281
L7335 6300
L7402 6319
L7535 6319
L7602 6300
L7635 6281
L7669 6243
L7669 6167
L7635 6129
L7602 6110
L7535 6091
L7402 6091
L7335 6110
L7302 6129
L7269 6167
" />
<path d="M6969 5729
L6969 5919
L7302 5938
L7269 5919
L7235 5881
L7235 5786
L7269 5748
L7302 5729
L7369 5710
L7535 5710
L7602 5729
L7635 5748
L7669 5786
L7669 5881
L7635 5919
L7602 5938
" />
<path d="M7402 5538
L7402 5233
" />
<path d="M7669 5043
L6969 5043
L6969 4891
L7002 4853
L7035 4833
L7102 4814
L7202 4814
L7269 4833
L7302 4853
L7335 4891
L7335 5043
" />
</g>
<g style="fill:#00A0A0; fill-opacity:0.0; 
stroke:#00A0A0; stroke-width:120; stroke-opacity:1; 
stroke-linecap:round; stroke-linejoin:round;">
</g>
<g style="fill:#00A0A0; fill-opacity:0.0; 
stroke:#00A0A0; stroke-width:80; stroke-opacity:1; 
stroke-linecap:round; stroke-linejoin:round;">
<path d="M7219 4393
L7200 4412
L7142 4431
L7104 4431
L7047 4412
L7009 4374
L6990 4336
L6971 4260
L6971 4203
L6990 4127
L7009 4089
L7047 4051
L7104 4031
L7142 4031
L7200 4051
L7219 4070
" />
<path d="M7600 4431
L7371 4431
" />
<path d="M7485 4431
L7485 4031
L7447 4089
L7409 4127
L7371 4146
" />
</g>
<g style="fill:#00A0A0; fill-opacity:0.0; 
stroke:#00A0A0; stroke-width:50; stroke-opacity:1; 
stroke-linecap:round; stroke-linejoin:round;">
<circle cx="12110.2" cy="4157.48" r="1000" /> 
<path d="M10610 2657
L13610 2657
" />
<path d="M13610 2657
L13610 5657
" />
<path d="M13610 5657
L10610 5657
" />
<path d="M10610 2657
L10610 5657
" />
</g>
<g style="fill:#00A0A0; fill-opacity:0.0; 
stroke:#00A0A0; stroke-width:59.0551; stroke-opacity:1; 
stroke-linecap:round; stroke-linejoin:round;">
<circle cx="18409.4" cy="8094.49" r="1366.66" /> 
</g>
<g style="fill:#00A0A0; fill-opacity:0.0; 
stroke:#00A0A0; stroke-width:120; stroke-opacity:1; 
stroke-linecap:round; stroke-linejoin:round;">
<path d="M4500 2000
L4500 2200
" />
<path d="M4500 5000
L4500 4800
" />
<path d="M4500 4800
L4900 4800
" />
<path d="M4900 4800
L4900 2200
" />
<path d="M4900 2200
L4100 2200
" />
<path d="M4100 2200
L4100 4800
" />
<path d="M4100 4800
L4500 4800
" />
<path d="M4700 2200
L4900 2400
" />
<path d="M3000 2000
L3000 2200
" />
<path d="M3000 5000
L3000 4800
" />
<path d="M3000 4800
L3400 4800
" />
<path d="M3400 4800
L3400 2200
" />
<path d="M3400 2200
L2600 2200
" />
<path d="M2600 2200
L2600 4800
" />
<path d="M2600 4800
L3000 4800
" />
<path d="M3200 2200
L3400 2400
" />
<path d="M10000 9000
L10200 9000
" />
<path d="M13000 9000
L12800 9000
" />
<path d="M12800 9000
L12800 8600
" />
<path d="M12800 8600
L10200 8600
" />
<path d="M10200 8600
L10200 9400
" />
<path d="M10200 9400
L12800 9400
" />
<path d="M12800 9400
L12800 9000
" />
<path d="M10200 8800
L10400 8600
" />
<path d="M10000 8000
L10200 8000
" />
<path d="M13000 8000
L12800 8000
" />
<path d="M12800 8000
L12800 7600
" />
<path d="M12800 7600
L10200 7600
" />
<path d="M10200 7600
L10200 8400
" />
<path d="M10200 8400
L12800 8400
" />
<path d="M12800 8400
L12800 8000
" />
<path d="M10200 7800
L10400 7600
" />
<path d="M10000 7000
L10200 7000
" />
<path d="M13000 7000
L12800 7000
" />
<path d="M12800 7000
L12800 6600
" />
<path d="M12800 6600
L10200 6600
" />
<path d="M10200 6600
L10200 7400
" />
<path d="M10200 7400
L12800 7400
" />
<path d="M12800 7400
L12800 7000
" />
<path d="M10200 6800
L10400 6600
" />
</g>
<g style="fill:#00A0A0; fill-opacity:0.0; 
stroke:#00A0A0; stroke-width:60; stroke-opacity:1; 
stroke-linecap:round; stroke-linejoin:round;">
<path d="M8385 1295
L8385 2295
" />
<path d="M8385 2295
L6385 2295
" />
<path d="M6385 2295
L6385 1295
" />
<path d="M6385 1295
L8385 1295
" />
</g>
<g style="fill:#00A0A0; fill-opacity:0.0; 
stroke:#00A0A0; stroke-width:80; stroke-opacity:1; 
stroke-linecap:round; stroke-linejoin:round;">
<path d="M4568 8844
L4568 7344
" />
</g>
<g style="fill:#00A0A0; fill-opacity:0.0; 
stroke:#00A0A0; stroke-width:30; stroke-opacity:1; 
stroke-linecap:round; stroke-linejoin:round;">
<circle cx="3548.82" cy="8094.49" r="707.107" /> 
</g>
<g style="fill:#00A0A0; fill-opacity:0.0; 
stroke:#00A0A0; stroke-width:100; stroke-opacity:1; 
stroke-linecap:round; stroke-linejoin:round;">
<path d="M4548.42 7343.96 A1250 1250 0.0 1 0 4548.42 8845.01 " />
</g>
<g style="fill:#00A0A0; fill-opacity:0.0; 
stroke:#00A0A0; stroke-width:60; stroke-opacity:1; 
stroke-linecap:round; stroke-linejoin:round;">
<path d="M3548.82 7644.49 A450 450 0.0 0 0 3098.82 8094.49 " />
<path d="M3548.82 8544.49 A450 450 0.0 0 0 3998.82 8094.49 " />
<path d="M3548.82 7444.49 A650 650 0.0 0 0 2898.82 8094.49 " />
<path d="M3548.82 8744.49 A650 650 0.0 0 0 4198.82 8094.49 " />
<path d="M3548.82 7244.49 A850 850 0.0 0 0 2698.82 8094.49 " />
<path d="M3548.82 8944.49 A850 850 0.0 0 0 4398.82 8094.49 " />
</g>
<g style="fill:#00A0A0; fill-opacity:0.0; 
stroke:#00A0A0; stroke-width:150; stroke-opacity:1; 
stroke-linecap:round; stroke-linejoin:round;">
<path d="M7885 4519
L7885 5019
" />
<path d="M7885 5019
L6885 5019
" />
<path d="M6885 5019
L6885 4519
" />
<path d="M8385 4519
L8385 8519
" />
<path d="M8385 8519
L6385 8519
" />
<path d="M6385 8519
L6385 4519
" />
<path d="M6385 4519
L8385 4519
" />
</g>
<g style="fill:#00A0A0; fill-opacity:0.0; 
stroke:#00A0A0; stroke-width:120; stroke-opacity:1; 
stroke-linecap:round; stroke-linejoin:round;">
<path d="M8365 3870
L6385 3870
" />
<path d="M6385 3870
L6385 2870
" />
<path d="M6385 2870
L8385 2870
" />
<path d="M8385 2870
L8385 3870
" />
<path d="M8385 3620
L8135 3870
" />
</g>
<g style="fill:#808000; fill-opacity:0.0; 
stroke:#808000; stroke-width:39.3701; stroke-opacity:1; 
stroke-linecap:round; stroke-linejoin:round;">
</g>
<g style="fill:#808000; fill-opacity:1.0; 
stroke:#808000; stroke-width:39.3701; stroke-opacity:1; 
stroke-linecap:round; stroke-linejoin:round;">
<circle cx="13610.2" cy="3157.48" r="255.315" /> 
<circle cx="13610.2" cy="5157.48" r="255.315" /> 
<circle cx="10610.2" cy="3157.48" r="255.315" /> 
<circle cx="10610.2" cy="5157.48" r="255.315" /> 
<circle cx="18409.4" cy="9039.37" r="236.22" /> 
<circle cx="18409.4" cy="8409.45" r="236.22" /> 
<circle cx="18409.4" cy="7779.53" r="216.535" /> 
<circle cx="18409.4" cy="7149.61" r="216.535" /> 
<circle cx="4500" cy="2000" r="305.315" /> 
<circle cx="4500" cy="5000" r="305.315" /> 
<circle cx="3000" cy="2000" r="305.315" /> 
<circle cx="3000" cy="5000" r="305.315" /> 
<circle cx="10000" cy="9000" r="305.315" /> 
<circle cx="13000" cy="9000" r="305.315" /> 
<circle cx="10000" cy="8000" r="305.315" /> 
<circle cx="13000" cy="8000" r="305.315" /> 
<circle cx="10000" cy="7000" r="305.315" /> 
<circle cx="13000" cy="7000" r="305.315" /> 
<polyline style="fill-rule:evenodd;"
points="8166,1514
8166,2075
7605,2075
7605,1514
8166,1514
" /> 
<circle cx="6885.83" cy="1795.28" r="280.315" /> 
<circle cx="2948.82" cy="8094.49" r="310.315" /> 
<circle cx="3948.82" cy="8094.49" r="310.315" /> 
<polyline style="fill-rule:evenodd;"
points="5455,4729
6316,4729
6316,5310
5455,5310
5455,4729
" /> 
</g>
<g style="fill:#808000; fill-opacity:1.0; 
stroke:#808000; stroke-width:620; stroke-opacity:1; 
stroke-linecap:round; stroke-linejoin:round;">
<path d="M6025 6019
L5745 6019
" />
<path d="M6025 7019
L5745 7019
" />
<path d="M6025 8019
L5745 8019
" />
<path d="M9025 8019
L8745 8019
" />
<path d="M9025 7019
L8745 7019
" />
<path d="M9025 6019
L8745 6019
" />
<path d="M9025 5019
L8745 5019
" />
</g>
<g style="fill:#808000; fill-opacity:1.0; 
stroke:#808000; stroke-width:39.3701; stroke-opacity:1; 
stroke-linecap:round; stroke-linejoin:round;">
<circle cx="7885.83" cy="3370.08" r="255.315" /> 
<circle cx="6885.83" cy="3370.08" r="255.315" /> 
</g> 
</svg>
