<?xml version="1.0" standalone="no"?>
 <!DOCTYPE svg PUBLIC "-//W3C//DTD SVG 1.1//EN" 
 "http://www.w3.org/Graphics/SVG/1.1/DTD/svg11.dtd"> 
<svg xmlns="http://www.w3.org/2000/svg" version="1.1" 
    width="6.00456cm" height="5.40512cm" viewBox="0 0 23640 21280 ">
<title>SVG Picture created as christmas-tree-B_Cu.svg date 2014/12/16 22:51:50 </title>
  <desc>Picture generated by PCBNEW </desc>
<g style="fill:#000000; fill-opacity:1;stroke:#000000; stroke-opacity:1;
stroke-linecap:round; stroke-linejoin:round; "
 transform="translate(0 0) scale(1 1)">
</g>
<g style="fill:#000000; fill-opacity:0.0; 
stroke:#000000; stroke-width:118.11; stroke-opacity:1; 
stroke-linecap:round; stroke-linejoin:round;">
<path d="M6131 3857
L6103 3885
L6047 3913
L5906 3913
L5850 3885
L5822 3857
L5794 3801
L5794 3745
L5822 3660
L6159 3323
L5794 3323
" />
<path d="M5428 3913
L5372 3913
L5315 3885
L5287 3857
L5259 3801
L5231 3689
L5231 3548
L5259 3435
L5287 3379
L5315 3351
L5372 3323
L5428 3323
L5484 3351
L5512 3379
L5540 3435
L5569 3548
L5569 3689
L5540 3801
L5512 3857
L5484 3885
L5428 3913
" />
<path d="M4669 3323
L5006 3323
" />
<path d="M4837 3323
L4837 3913
L4894 3829
L4950 3773
L5006 3745
" />
<path d="M4162 3717
L4162 3323
" />
<path d="M4303 3942
L4444 3520
L4078 3520
" />
<path d="M20824 3323
L20824 3913
L20628 3492
L20431 3913
L20431 3323
" />
<path d="M19896 3323
L19896 3632
L19925 3689
L19981 3717
L20093 3717
L20150 3689
" />
<path d="M19896 3351
L19953 3323
L20093 3323
L20150 3351
L20178 3407
L20178 3464
L20150 3520
L20093 3548
L19953 3548
L19896 3576
" />
<path d="M19615 3323
L19615 3913
" />
<path d="M19559 3548
L19390 3323
" />
<path d="M19390 3717
L19615 3492
" />
<path d="M18912 3351
L18968 3323
L19081 3323
L19137 3351
L19165 3407
L19165 3632
L19137 3689
L19081 3717
L18968 3717
L18912 3689
L18884 3632
L18884 3576
L19165 3520
" />
<path d="M18294 3323
L18490 3604
" />
<path d="M18631 3323
L18631 3913
L18406 3913
L18350 3885
L18322 3857
L18294 3801
L18294 3717
L18322 3660
L18350 3632
L18406 3604
L18631 3604
" />
<path d="M18040 3323
L18040 3717
" />
<path d="M18040 3913
L18069 3885
L18040 3857
L18012 3885
L18040 3913
L18040 3857
" />
<path d="M17506 3717
L17506 3239
L17534 3182
L17562 3154
L17619 3126
L17703 3126
L17759 3154
" />
<path d="M17506 3351
L17562 3323
L17675 3323
L17731 3351
L17759 3379
L17787 3435
L17787 3604
L17759 3660
L17731 3689
L17675 3717
L17562 3717
L17506 3689
" />
<path d="M16972 3323
L16972 3632
L17000 3689
L17056 3717
L17169 3717
L17225 3689
" />
<path d="M16972 3351
L17028 3323
L17169 3323
L17225 3351
L17253 3407
L17253 3464
L17225 3520
L17169 3548
L17028 3548
L16972 3576
" />
</g>
<g style="fill:#000000; fill-opacity:0.0; 
stroke:#000000; stroke-width:39.3701; stroke-opacity:1; 
stroke-linecap:round; stroke-linejoin:round;">
<circle cx="0.984252" cy="21279" r="0.655906" /> 
<path d="M0 21279
L1 21279
" />
<path d="M0 21280
L0 21278
" />
<path d="M17717 15176
L12008 20885
" />
<path d="M14567 15176
L17717 15176
" />
<path d="M21260 8483
L14567 15176
" />
<path d="M17717 8483
L21260 8483
" />
<path d="M23623 2578
L17717 8483
" />
<path d="M15749 2578
L23623 2578
" />
<path d="M15749 19
L15749 2578
" />
<path d="M8268 19
L15749 19
" />
<path d="M8268 2578
L8268 19
" />
<path d="M394 2578
L8268 2578
" />
<path d="M6300 8483
L394 2578
" />
<path d="M2756 8483
L6300 8483
" />
<path d="M9449 15176
L2756 8483
" />
<path d="M6300 15176
L9449 15176
" />
<path d="M12008 20885
L6300 15176
" />
</g>
<g style="fill:#000000; fill-opacity:1.0; 
stroke:#000000; stroke-width:39.3701; stroke-opacity:1; 
stroke-linecap:round; stroke-linejoin:round;">
<circle cx="9449.8" cy="9786.89" r="305.315" /> 
<circle cx="9449.8" cy="6786.89" r="305.315" /> 
<circle cx="9130.91" cy="5137.28" r="305.315" /> 
<circle cx="12130.9" cy="5137.28" r="305.315" /> 
<circle cx="12205.7" cy="11117.6" r="305.315" /> 
<circle cx="12205.7" cy="14117.6" r="305.315" /> 
<circle cx="13190" cy="11117.6" r="305.315" /> 
<circle cx="13190" cy="14117.6" r="305.315" /> 
<circle cx="14174.2" cy="11117.6" r="305.315" /> 
<circle cx="14174.2" cy="14117.6" r="305.315" /> 
<circle cx="12099.4" cy="2381.38" r="310.315" /> 
<circle cx="13099.4" cy="2381.38" r="310.315" /> 
<polyline style="fill-rule:evenodd;"
points="10809,6356
10809,7217
11389,7217
11389,6356
10809,6356
" /> 
</g>
<g style="fill:#000000; fill-opacity:1.0; 
stroke:#000000; stroke-width:620; stroke-opacity:1; 
stroke-linecap:round; stroke-linejoin:round;">
<path d="M12099 6926
L12099 6646
" />
<path d="M13099 6926
L13099 6646
" />
<path d="M14099 6926
L14099 6646
" />
<path d="M14099 9926
L14099 9646
" />
<path d="M13099 9926
L13099 9646
" />
<path d="M12099 9926
L12099 9646
" />
<path d="M11099 9926
L11099 9646
" />
</g>
<g style="fill:#000000; fill-opacity:1.0; 
stroke:#000000; stroke-width:39.3701; stroke-opacity:1; 
stroke-linecap:round; stroke-linejoin:round;">
<circle cx="8268.7" cy="9574.29" r="255.315" /> 
<circle cx="8268.7" cy="8574.29" r="255.315" /> 
<circle cx="11064" cy="18720" r="236.22" /> 
<circle cx="11693.9" cy="18720" r="236.22" /> 
<circle cx="12323.8" cy="18720" r="216.535" /> 
<circle cx="12953.7" cy="18720" r="216.535" /> 
<circle cx="15945.9" cy="5137.28" r="275.591" /> 
<circle cx="13190" cy="5137.28" r="275.591" /> 
<polyline style="fill-rule:evenodd;"
points="9366,3949
9926,3949
9926,3388
9366,3388
9366,3949
" /> 
<circle cx="9646.65" cy="2668.78" r="280.315" /> 
</g>
<g style="fill:#000000; fill-opacity:1.0; 
stroke:#000000; stroke-width:393.701; stroke-opacity:1; 
stroke-linecap:round; stroke-linejoin:round;">
<path d="M12323 18719
L12323 19034
" />
<path d="M15158 7845
L14099 6786
" />
<path d="M15158 14103
L15158 7845
" />
<path d="M13583 15678
L15158 14103
" />
<path d="M13583 18916
L13583 15678
" />
<path d="M13189 19310
L13583 18916
" />
<path d="M12599 19310
L13189 19310
" />
<path d="M12323 19034
L12599 19310
" />
<path d="M9646 2668
L10146 2668
" />
<path d="M13099 1503
L13099 2381
" />
<path d="M12796 1200
L13099 1503
" />
<path d="M11615 1200
L12796 1200
" />
<path d="M10146 2668
L11615 1200
" />
<path d="M8268 8574
L13099 8574
" />
<path d="M14099 7574
L14099 6786
" />
<path d="M13099 8574
L14099 7574
" />
<path d="M13099 2381
L13189 2381
" />
<path d="M13189 2381
L15945 5137
" />
<path d="M15945 5137
L15749 5137
" />
<path d="M15749 5137
L14099 6786
" />
<path d="M11063 18719
L11063 18562
" />
<path d="M11296 14117
L12205 14117
" />
<path d="M10237 15176
L11296 14117
" />
<path d="M10237 17735
L10237 15176
" />
<path d="M11063 18562
L10237 17735
" />
<path d="M14099 9786
L14099 11042
" />
<path d="M14099 11042
L14174 11117
" />
<path d="M9449 6786
L11099 6786
" />
<path d="M13099 9786
L13099 11027
" />
<path d="M13099 11027
L13189 11117
" />
<path d="M12099 9786
L12099 11011
" />
<path d="M12099 11011
L12205 11117
" />
<path d="M12130 5137
L12130 2412
" />
<path d="M12130 2412
L12099 2381
" />
<path d="M12099 6786
L12099 5168
" />
<path d="M12099 5168
L12130 5137
" />
<path d="M14174 14117
L14174 14389
" />
<path d="M12953 18286
L12953 18719
" />
<path d="M12402 17735
L12953 18286
" />
<path d="M12402 16160
L12402 17735
" />
<path d="M14174 14389
L12402 16160
" />
<path d="M11693 18719
L11693 18208
" />
<path d="M13189 14586
L13189 14117
" />
<path d="M12796 14979
L13189 14586
" />
<path d="M11812 14979
L12796 14979
" />
<path d="M11221 15570
L11812 14979
" />
<path d="M11221 17735
L11221 15570
" />
<path d="M11693 18208
L11221 17735
" />
<path d="M13189 5137
L13189 6696
" />
<path d="M13189 6696
L13099 6786
" />
<path d="M9646 3668
L9646 4621
" />
<path d="M9646 4621
L9130 5137
" />
<path d="M9130 5137
L9130 5653
" />
<path d="M7587 9574
L8268 9574
" />
<path d="M7284 9271
L7587 9574
" />
<path d="M7284 7499
L7284 9271
" />
<path d="M9130 5653
L7284 7499
" />
<path d="M9449 9786
L11099 9786
" />
<path d="M8268 9574
L9237 9574
" />
<path d="M9237 9574
L9449 9786
" />
</g>
<g style="fill:#000000; fill-opacity:1.0; 
stroke:#000000; stroke-width:39.3701; stroke-opacity:1; 
stroke-linecap:round; stroke-linejoin:round;">
<polyline style="fill-rule:evenodd;"
points="12746,15326
11955,15326
11568,15714
11568,17592
11939,17962
12014,18075
12040,18208
12040,18456
12104,18392
12246,18333
12400,18333
12542,18392
12606,18456
12606,18430
12157,17980
12082,17868
12055,17735
12055,16160
12082,16028
12157,15915
12746,15326
" /> 
</g>
<g style="fill:#000000; fill-opacity:0.0; 
stroke:#000000; stroke-width:100; stroke-opacity:1; 
stroke-linecap:round; stroke-linejoin:round;">
<polyline fill="none;"
points="12746,15326
11955,15326
11568,15714
11568,17592
11939,17962
12014,18075
12040,18208
12040,18456
12104,18392
12246,18333
12400,18333
12542,18392
12606,18456
12606,18430
12157,17980
12082,17868
12055,17735
12055,16160
12082,16028
12157,15915
12746,15326
" /> 
</g>
<g style="fill:#000000; fill-opacity:1.0; 
stroke:#000000; stroke-width:39.3701; stroke-opacity:1; 
stroke-linecap:round; stroke-linejoin:round;">
<polyline style="fill-rule:evenodd;"
points="13236,15817
12749,16304
12749,17592
13199,18041
13199,18041
13199,18041
13236,18098
13236,15817
" /> 
</g>
<g style="fill:#000000; fill-opacity:0.0; 
stroke:#000000; stroke-width:100; stroke-opacity:1; 
stroke-linecap:round; stroke-linejoin:round;">
<polyline fill="none;"
points="13236,15817
12749,16304
12749,17592
13199,18041
13199,18041
13199,18041
13236,18098
13236,15817
" /> 
</g>
<g style="fill:#000000; fill-opacity:1.0; 
stroke:#000000; stroke-width:39.3701; stroke-opacity:1; 
stroke-linecap:round; stroke-linejoin:round;">
<polyline style="fill-rule:evenodd;"
points="17359,15325
14567,15325
14511,15313
14467,15284
13930,15821
13930,18753
17359,15325
" /> 
</g>
<g style="fill:#000000; fill-opacity:0.0; 
stroke:#000000; stroke-width:100; stroke-opacity:1; 
stroke-linecap:round; stroke-linejoin:round;">
<polyline fill="none;"
points="17359,15325
14567,15325
14511,15313
14467,15284
13930,15821
13930,18753
17359,15325
" /> 
</g>
<g style="fill:#000000; fill-opacity:1.0; 
stroke:#000000; stroke-width:39.3701; stroke-opacity:1; 
stroke-linecap:round; stroke-linejoin:round;">
<polyline style="fill-rule:evenodd;"
points="23264,2726
21153,2726
21153,2961
21153,4281
16643,4281
16643,2961
21153,2961
21153,2726
15749,2726
15692,2715
15644,2683
15611,2635
15600,2578
15600,167
8417,167
8417,2578
8405,2635
8373,2683
8325,2715
8268,2726
6431,2726
6431,2961
6431,4281
3806,4281
3806,2961
6431,2961
6431,2726
753,2726
6405,8378
6405,8378
6437,8426
6448,8483
6448,8483
6437,8540
6437,8540
6405,8588
6356,8620
6300,8632
3115,8632
9554,15071
9554,15071
9586,15119
9598,15176
9598,15176
9586,15233
9586,15233
9554,15281
9506,15313
9449,15325
6658,15325
12008,20675
13026,19657
12599,19657
12466,19630
12354,19555
12078,19280
12003,19167
11976,19034
11976,19010
11924,19063
11774,19125
11613,19125
11464,19064
11378,18979
11294,19063
11145,19125
10983,19125
10834,19064
10720,18950
10658,18801
10658,18647
9991,17980
9916,17868
9890,17735
9890,15176
9916,15043
9991,14931
11050,13872
11163,13797
11163,13797
11296,13770
11880,13770
11936,13715
12110,13642
12299,13642
12474,13714
12608,13848
12680,14022
12680,14211
12608,14386
12475,14520
12300,14592
12111,14592
11936,14520
11880,14464
11439,14464
10584,15320
10584,17592
11309,18317
11347,18373
11347,18351
10976,17980
10901,17868
10874,17735
10874,15570
10901,15437
10976,15325
11566,14734
11679,14659
11679,14659
11812,14632
12652,14632
12843,14442
12787,14387
12715,14212
12714,14023
12787,13848
12920,13715
13095,13642
13284,13642
13458,13714
13592,13848
13664,14022
13665,14211
13592,14386
13536,14442
13536,14536
13746,14326
13699,14212
13699,14023
13771,13848
13904,13715
14079,13642
14268,13642
14442,13714
14576,13848
14649,14022
14649,14121
14811,13959
14811,7989
14649,7827
14649,11211
14577,11386
14443,11520
14269,11592
14080,11592
13905,11520
13771,11387
13699,11212
13699,11023
13752,10894
13752,10231
13674,10114
13665,10067
13665,11211
13592,11386
13459,11520
13284,11592
13095,11592
12921,11520
12787,11387
12715,11212
12714,11023
12752,10932
12752,10231
12680,10124
12680,11211
12608,11386
12475,11520
12300,11592
12111,11592
11936,11520
11803,11387
11730,11212
11730,11023
11752,10970
11752,10231
11674,10114
11639,9938
11639,9635
11674,9459
11774,9309
11923,9210
12099,9175
12275,9210
12424,9309
12524,9459
12559,9635
12559,9938
12524,10114
12446,10231
12446,10703
12474,10714
12608,10848
12680,11022
12680,11211
12680,10124
12674,10114
12639,9938
12639,9635
12674,9459
12774,9309
12923,9210
13099,9175
13275,9210
13424,9309
13524,9459
13559,9635
13559,9938
13524,10114
13446,10231
13446,10709
13458,10714
13592,10848
13664,11022
13665,11211
13665,10067
13639,9938
13639,9635
13674,9459
13774,9309
13923,9210
14099,9175
14275,9210
14424,9309
14524,9459
14559,9635
14559,9938
14524,10114
14446,10231
14446,10718
14576,10848
14649,11022
14649,11211
14649,7827
14437,7615
14419,7707
14419,7707
14344,7819
13344,8819
13232,8894
13099,8921
11559,8921
11559,9635
11559,9938
11524,10114
11424,10263
11275,10363
11099,10398
10923,10363
10774,10263
10687,10133
9774,10133
9719,10189
9544,10261
9355,10261
9181,10189
9047,10056
8991,9921
8522,9921
8509,9934
8353,9999
8184,9999
8028,9934
8014,9921
7587,9921
7454,9894
7342,9819
7039,9516
6964,9403
6937,9271
6937,7499
6964,7366
7039,7254
8784,5509
8784,5462
8728,5406
8655,5232
8655,5043
8727,4868
8861,4734
9036,4662
9115,4662
9299,4477
9299,4111
9261,4096
9219,4053
9196,3998
9196,3939
9196,3339
9219,3283
9261,3241
9316,3218
9376,3218
9976,3218
10031,3241
10073,3283
10096,3338
10096,3398
10096,3998
10073,4053
10031,4095
9993,4111
9993,4621
9993,4621
9967,4754
9967,4754
9942,4791
9891,4866
9891,4866
9605,5152
9605,5231
9533,5405
9477,5462
9477,5653
9451,5785
9451,5785
9426,5823
9376,5898
9376,5898
7631,7643
7631,9127
7731,9227
8014,9227
8027,9214
8183,9149
8352,9149
8509,9213
8522,9227
9237,9227
9369,9253
9456,9311
9543,9311
9718,9383
9774,9440
10687,9440
10774,9309
10923,9210
11099,9175
11275,9210
11424,9309
11524,9459
11559,9635
11559,8921
8522,8921
8509,8934
8353,8999
8184,8999
8028,8934
7908,8815
7843,8659
7843,8490
7908,8333
8027,8214
8183,8149
8352,8149
8509,8213
8522,8227
12955,8227
13752,7430
13752,7231
13674,7114
13639,6938
13639,6635
13674,6459
13774,6309
13923,6210
14099,6175
14200,6195
15356,5038
13635,3317
13635,5225
13567,5389
13536,5420
13536,6521
13559,6635
13559,6938
13524,7114
13424,7263
13275,7363
13099,7398
12923,7363
12774,7263
12674,7114
12639,6938
12639,6635
12674,6459
12774,6309
12843,6263
12843,5420
12812,5389
12744,5226
12744,5049
12812,4885
12937,4760
13101,4692
13278,4691
13441,4759
13567,4884
13635,5048
13635,5225
13635,3317
13179,2861
13004,2861
12827,2788
12692,2653
12619,2477
12619,2286
12692,2109
12752,2049
12752,1647
12652,1547
12605,1547
12605,5231
12533,5405
12446,5493
12446,6342
12524,6459
12559,6635
12559,6938
12524,7114
12424,7263
12275,7363
12099,7398
11923,7363
11774,7263
11674,7114
11639,6938
11639,6635
11674,6459
11752,6342
11752,5430
11728,5406
11655,5232
11655,5043
11727,4868
11784,4812
11784,2744
11692,2653
11619,2477
11619,2286
11692,2109
11827,1974
12003,1901
12194,1901
12370,1974
12506,2109
12579,2285
12579,2476
12506,2652
12477,2681
12477,4812
12533,4867
12605,5042
12605,5231
12605,1547
11758,1547
11559,1746
11559,6366
11559,7266
11536,7321
11494,7363
11439,7386
11379,7386
10759,7386
10704,7364
10662,7321
10639,7266
10639,7207
10639,7133
9774,7133
9719,7189
9544,7261
9355,7261
9181,7189
9047,7056
8974,6881
8974,6692
9046,6518
9180,6384
9354,6311
9543,6311
9718,6383
9774,6440
10639,6440
10639,6307
10662,6252
10704,6209
10759,6186
10819,6186
11439,6186
11494,6209
11536,6251
11559,6306
11559,6366
11559,1746
10391,2914
10279,2989
10146,3015
9936,3015
9901,3050
9736,3118
9557,3118
9392,3050
9265,2924
9196,2758
9196,2579
9264,2414
9391,2287
9556,2218
9735,2218
9901,2287
9936,2321
10002,2321
11369,955
11482,879
11482,879
11615,853
12796,853
12928,879
13041,955
13344,1258
13419,1370
13419,1370
13446,1503
13446,2049
13506,2109
13575,2276
15991,4691
16034,4691
16197,4759
16323,4884
16391,5048
16391,5225
16323,5389
16198,5514
16034,5582
15857,5582
15812,5564
14589,6786
15403,7600
15478,7713
15478,7713
15505,7845
15505,14029
20902,8632
17717,8632
17660,8620
17612,8588
17580,8540
17569,8483
17580,8426
17612,8378
23264,2726
" /> 
</g>
<g style="fill:#000000; fill-opacity:0.0; 
stroke:#000000; stroke-width:100; stroke-opacity:1; 
stroke-linecap:round; stroke-linejoin:round;">
<polyline fill="none;"
points="23264,2726
21153,2726
21153,2961
21153,4281
16643,4281
16643,2961
21153,2961
21153,2726
15749,2726
15692,2715
15644,2683
15611,2635
15600,2578
15600,167
8417,167
8417,2578
8405,2635
8373,2683
8325,2715
8268,2726
6431,2726
6431,2961
6431,4281
3806,4281
3806,2961
6431,2961
6431,2726
753,2726
6405,8378
6405,8378
6437,8426
6448,8483
6448,8483
6437,8540
6437,8540
6405,8588
6356,8620
6300,8632
3115,8632
9554,15071
9554,15071
9586,15119
9598,15176
9598,15176
9586,15233
9586,15233
9554,15281
9506,15313
9449,15325
6658,15325
12008,20675
13026,19657
12599,19657
12466,19630
12354,19555
12078,19280
12003,19167
11976,19034
11976,19010
11924,19063
11774,19125
11613,19125
11464,19064
11378,18979
11294,19063
11145,19125
10983,19125
10834,19064
10720,18950
10658,18801
10658,18647
9991,17980
9916,17868
9890,17735
9890,15176
9916,15043
9991,14931
11050,13872
11163,13797
11163,13797
11296,13770
11880,13770
11936,13715
12110,13642
12299,13642
12474,13714
12608,13848
12680,14022
12680,14211
12608,14386
12475,14520
12300,14592
12111,14592
11936,14520
11880,14464
11439,14464
10584,15320
10584,17592
11309,18317
11347,18373
11347,18351
10976,17980
10901,17868
10874,17735
10874,15570
10901,15437
10976,15325
11566,14734
11679,14659
11679,14659
11812,14632
12652,14632
12843,14442
12787,14387
12715,14212
12714,14023
12787,13848
12920,13715
13095,13642
13284,13642
13458,13714
13592,13848
13664,14022
13665,14211
13592,14386
13536,14442
13536,14536
13746,14326
13699,14212
13699,14023
13771,13848
13904,13715
14079,13642
14268,13642
14442,13714
14576,13848
14649,14022
14649,14121
14811,13959
14811,7989
14649,7827
14649,11211
14577,11386
14443,11520
14269,11592
14080,11592
13905,11520
13771,11387
13699,11212
13699,11023
13752,10894
13752,10231
13674,10114
13665,10067
13665,11211
13592,11386
13459,11520
13284,11592
13095,11592
12921,11520
12787,11387
12715,11212
12714,11023
12752,10932
12752,10231
12680,10124
12680,11211
12608,11386
12475,11520
12300,11592
12111,11592
11936,11520
11803,11387
11730,11212
11730,11023
11752,10970
11752,10231
11674,10114
11639,9938
11639,9635
11674,9459
11774,9309
11923,9210
12099,9175
12275,9210
12424,9309
12524,9459
12559,9635
12559,9938
12524,10114
12446,10231
12446,10703
12474,10714
12608,10848
12680,11022
12680,11211
12680,10124
12674,10114
12639,9938
12639,9635
12674,9459
12774,9309
12923,9210
13099,9175
13275,9210
13424,9309
13524,9459
13559,9635
13559,9938
13524,10114
13446,10231
13446,10709
13458,10714
13592,10848
13664,11022
13665,11211
13665,10067
13639,9938
13639,9635
13674,9459
13774,9309
13923,9210
14099,9175
14275,9210
14424,9309
14524,9459
14559,9635
14559,9938
14524,10114
14446,10231
14446,10718
14576,10848
14649,11022
14649,11211
14649,7827
14437,7615
14419,7707
14419,7707
14344,7819
13344,8819
13232,8894
13099,8921
11559,8921
11559,9635
11559,9938
11524,10114
11424,10263
11275,10363
11099,10398
10923,10363
10774,10263
10687,10133
9774,10133
9719,10189
9544,10261
9355,10261
9181,10189
9047,10056
8991,9921
8522,9921
8509,9934
8353,9999
8184,9999
8028,9934
8014,9921
7587,9921
7454,9894
7342,9819
7039,9516
6964,9403
6937,9271
6937,7499
6964,7366
7039,7254
8784,5509
8784,5462
8728,5406
8655,5232
8655,5043
8727,4868
8861,4734
9036,4662
9115,4662
9299,4477
9299,4111
9261,4096
9219,4053
9196,3998
9196,3939
9196,3339
9219,3283
9261,3241
9316,3218
9376,3218
9976,3218
10031,3241
10073,3283
10096,3338
10096,3398
10096,3998
10073,4053
10031,4095
9993,4111
9993,4621
9993,4621
9967,4754
9967,4754
9942,4791
9891,4866
9891,4866
9605,5152
9605,5231
9533,5405
9477,5462
9477,5653
9451,5785
9451,5785
9426,5823
9376,5898
9376,5898
7631,7643
7631,9127
7731,9227
8014,9227
8027,9214
8183,9149
8352,9149
8509,9213
8522,9227
9237,9227
9369,9253
9456,9311
9543,9311
9718,9383
9774,9440
10687,9440
10774,9309
10923,9210
11099,9175
11275,9210
11424,9309
11524,9459
11559,9635
11559,8921
8522,8921
8509,8934
8353,8999
8184,8999
8028,8934
7908,8815
7843,8659
7843,8490
7908,8333
8027,8214
8183,8149
8352,8149
8509,8213
8522,8227
12955,8227
13752,7430
13752,7231
13674,7114
13639,6938
13639,6635
13674,6459
13774,6309
13923,6210
14099,6175
14200,6195
15356,5038
13635,3317
13635,5225
13567,5389
13536,5420
13536,6521
13559,6635
13559,6938
13524,7114
13424,7263
13275,7363
13099,7398
12923,7363
12774,7263
12674,7114
12639,6938
12639,6635
12674,6459
12774,6309
12843,6263
12843,5420
12812,5389
12744,5226
12744,5049
12812,4885
12937,4760
13101,4692
13278,4691
13441,4759
13567,4884
13635,5048
13635,5225
13635,3317
13179,2861
13004,2861
12827,2788
12692,2653
12619,2477
12619,2286
12692,2109
12752,2049
12752,1647
12652,1547
12605,1547
12605,5231
12533,5405
12446,5493
12446,6342
12524,6459
12559,6635
12559,6938
12524,7114
12424,7263
12275,7363
12099,7398
11923,7363
11774,7263
11674,7114
11639,6938
11639,6635
11674,6459
11752,6342
11752,5430
11728,5406
11655,5232
11655,5043
11727,4868
11784,4812
11784,2744
11692,2653
11619,2477
11619,2286
11692,2109
11827,1974
12003,1901
12194,1901
12370,1974
12506,2109
12579,2285
12579,2476
12506,2652
12477,2681
12477,4812
12533,4867
12605,5042
12605,5231
12605,1547
11758,1547
11559,1746
11559,6366
11559,7266
11536,7321
11494,7363
11439,7386
11379,7386
10759,7386
10704,7364
10662,7321
10639,7266
10639,7207
10639,7133
9774,7133
9719,7189
9544,7261
9355,7261
9181,7189
9047,7056
8974,6881
8974,6692
9046,6518
9180,6384
9354,6311
9543,6311
9718,6383
9774,6440
10639,6440
10639,6307
10662,6252
10704,6209
10759,6186
10819,6186
11439,6186
11494,6209
11536,6251
11559,6306
11559,6366
11559,1746
10391,2914
10279,2989
10146,3015
9936,3015
9901,3050
9736,3118
9557,3118
9392,3050
9265,2924
9196,2758
9196,2579
9264,2414
9391,2287
9556,2218
9735,2218
9901,2287
9936,2321
10002,2321
11369,955
11482,879
11482,879
11615,853
12796,853
12928,879
13041,955
13344,1258
13419,1370
13419,1370
13446,1503
13446,2049
13506,2109
13575,2276
15991,4691
16034,4691
16197,4759
16323,4884
16391,5048
16391,5225
16323,5389
16198,5514
16034,5582
15857,5582
15812,5564
14589,6786
15403,7600
15478,7713
15478,7713
15505,7845
15505,14029
20902,8632
17717,8632
17660,8620
17612,8588
17580,8540
17569,8483
17580,8426
17612,8378
23264,2726
" /> 
</g>
<g style="fill:#FFFFFF; fill-opacity:0.0; 
stroke:#FFFFFF; stroke-width:39.3701; stroke-opacity:1; 
stroke-linecap:round; stroke-linejoin:round;">
</g>
<g style="fill:#FFFFFF; fill-opacity:1.0; 
stroke:#FFFFFF; stroke-width:39.3701; stroke-opacity:1; 
stroke-linecap:round; stroke-linejoin:round;">
<circle cx="9449.8" cy="9786.89" r="140.315" /> 
<circle cx="9449.8" cy="6786.89" r="140.315" /> 
<circle cx="9130.91" cy="5137.28" r="140.315" /> 
<circle cx="12130.9" cy="5137.28" r="140.315" /> 
<circle cx="12205.7" cy="11117.6" r="140.315" /> 
<circle cx="12205.7" cy="14117.6" r="140.315" /> 
<circle cx="13190" cy="11117.6" r="140.315" /> 
<circle cx="13190" cy="14117.6" r="140.315" /> 
<circle cx="14174.2" cy="11117.6" r="140.315" /> 
<circle cx="14174.2" cy="14117.6" r="140.315" /> 
<circle cx="12099.4" cy="2381.38" r="140.315" /> 
<circle cx="13099.4" cy="2381.38" r="140.315" /> 
<circle cx="11099.4" cy="6786.89" r="140.315" /> 
<circle cx="12099.4" cy="6786.89" r="140.315" /> 
<circle cx="13099.4" cy="6786.89" r="140.315" /> 
<circle cx="14099.4" cy="6786.89" r="140.315" /> 
<circle cx="14099.4" cy="9786.89" r="140.315" /> 
<circle cx="13099.4" cy="9786.89" r="140.315" /> 
<circle cx="12099.4" cy="9786.89" r="140.315" /> 
<circle cx="11099.4" cy="9786.89" r="140.315" /> 
<circle cx="8268.7" cy="9574.29" r="140.315" /> 
<circle cx="8268.7" cy="8574.29" r="140.315" /> 
<circle cx="11064" cy="18720" r="98.4252" /> 
<circle cx="11693.9" cy="18720" r="98.4252" /> 
<circle cx="12323.8" cy="18720" r="98.4252" /> 
<circle cx="12953.7" cy="18720" r="98.4252" /> 
<circle cx="15945.9" cy="5137.28" r="98.4252" /> 
<circle cx="13190" cy="5137.28" r="98.4252" /> 
<circle cx="9646.65" cy="3668.78" r="180.315" /> 
<circle cx="9646.65" cy="2668.78" r="180.315" /> 
</g> 
</svg>
